<svg width="318" height="318" viewBox="0 0 318 318" fill="none" xmlns="http://www.w3.org/2000/svg">
<g opacity="0.6" filter="url(#filter0_d)">
<path fill-rule="evenodd" clip-rule="evenodd" d="M214.65 170.821C217.971 174.143 217.971 179.528 214.65 182.85L171.028 226.318C164.385 232.961 153.614 232.961 146.971 226.318L103.35 182.85C100.029 179.528 100.029 174.143 103.35 170.821C106.672 167.5 112.057 167.5 115.379 170.821L149.914 205.204L149.914 72.6857C149.914 67.6678 153.981 63.6 158.999 63.6C164.017 63.6 168.085 67.6678 168.085 72.6857L168.085 205.204L202.621 170.821C205.943 167.5 211.328 167.5 214.65 170.821Z" fill="#86CB92"/>
</g>
<defs>
<filter id="filter0_d" x="-4" y="0" width="326" height="326" filterUnits="userSpaceOnUse" color-interpolation-filters="sRGB">
<feFlood flood-opacity="0" result="BackgroundImageFix"/>
<feColorMatrix in="SourceAlpha" type="matrix" values="0 0 0 0 0 0 0 0 0 0 0 0 0 0 0 0 0 0 127 0"/>
<feOffset dy="4"/>
<feGaussianBlur stdDeviation="2"/>
<feColorMatrix type="matrix" values="0 0 0 0 0 0 0 0 0 0 0 0 0 0 0 0 0 0 0.25 0"/>
<feBlend mode="normal" in2="BackgroundImageFix" result="effect1_dropShadow"/>
<feBlend mode="normal" in="SourceGraphic" in2="effect1_dropShadow" result="shape"/>
</filter>
</defs>
</svg>
