<svg width="69" height="30" viewBox="0 0 92 40" fill="none" xmlns="http://www.w3.org/2000/svg">
<path fill-rule="evenodd" clip-rule="evenodd" d="M91.7602 19.689L91.4005 31.5789C91.4005 32.8389 91.3365 34.689 91.2087 37.1292C91.0488 38.7241 90.2654 39.5215 88.8586 39.5215C87.2918 39.5215 86.5085 38.7081 86.5085 37.0813C86.5085 35.1515 86.5964 32.2568 86.7723 28.3971C86.9481 24.5215 87.0361 21.6188 87.0361 19.689C87.0361 17.1691 87.076 14.2903 87.156 11.0526C87.2359 7.79904 87.2759 4.91228 87.2759 2.39234C87.2759 0.797448 88.0592 0 89.6259 0C91.2087 0 92 0.797448 92 2.39234C92 4.91228 91.96 7.79904 91.8801 11.0526C91.8002 14.2903 91.7602 17.1691 91.7602 19.689ZM11.6545 40C8.37717 40 5.64339 39.0112 3.45318 37.0335C1.15106 34.9601 0 32.2249 0 28.8278C0 25.5901 1.07912 22.2488 3.23736 18.8038C5.6354 14.9761 8.3372 13.0622 11.3427 13.0622C12.9095 13.0622 14.66 13.429 16.5945 14.1627C19.0405 15.1037 20.2635 16.252 20.2635 17.6077C20.2635 18.2137 20.0636 18.756 19.664 19.2344C19.2643 19.697 18.7687 19.9282 18.1772 19.9282C17.7135 19.9282 17.3059 19.7927 16.9542 19.5215C16.6184 19.2344 16.2907 18.9553 15.971 18.6842C15.0277 17.9346 13.485 17.5598 11.3427 17.5598C9.71208 17.5598 8.09739 19.0112 6.4987 21.9139C5.04388 24.5774 4.31648 26.882 4.31648 28.8278C4.31648 30.933 5.03589 32.5917 6.47472 33.8038C7.81762 34.9362 9.54421 35.5024 11.6545 35.5024C12.6137 35.5024 13.6369 35.2472 14.724 34.7368L17.5057 33.2536C17.9853 32.9984 18.329 32.8708 18.5369 32.8708C19.1284 32.8708 19.64 33.1101 20.0716 33.5885C20.5033 34.051 20.7191 34.5853 20.7191 35.1914C20.7191 36.3557 19.4881 37.4801 17.0261 38.5646C14.8679 39.5215 13.0773 40 11.6545 40ZM67.051 40C64.5866 40 62.4669 39.1043 60.692 37.313C58.7116 35.3193 57.6702 32.6395 57.5675 29.2735C57.4795 26.0086 58.3156 23.1337 60.0759 20.6489C62.1295 17.7163 64.99 16.25 68.6572 16.25C71.591 16.25 73.8134 17.5719 75.3243 20.2156C76.5272 22.3536 77.1066 24.9251 77.0626 27.93C77.0186 31.1371 76.1678 33.8747 74.5102 36.1428C72.6325 38.7143 70.1461 40 67.051 40ZM68.3712 20.6489C66.2148 20.6345 64.5352 21.6458 63.3324 23.6827C62.3789 25.3152 61.9022 27.1788 61.9022 29.2735C61.9022 31.3682 62.4816 33.0007 63.6404 34.1708C64.6086 35.1388 65.7454 35.6227 67.051 35.6227C68.5766 35.6227 69.8894 35.0738 70.9896 33.9758C72.2365 32.7623 72.8966 31.1226 72.9699 29.0568C73.1753 23.466 71.6424 20.6634 68.3712 20.6489ZM32.0741 37.313C33.8491 39.1043 35.9688 40 38.4332 40C41.5283 40 44.0147 38.7143 45.8923 36.1428C47.5499 33.8747 48.4007 31.1371 48.4448 27.93C48.4888 24.9251 47.9093 22.3536 46.7065 20.2156C45.1956 17.5719 42.9732 16.25 40.0394 16.25C36.3722 16.25 33.5117 17.7163 31.458 20.6489C29.6978 23.1337 28.8616 26.0086 28.9496 29.2735C29.0523 32.6395 30.0938 35.3193 32.0741 37.313ZM34.7146 23.6827C35.9174 21.6458 37.597 20.6345 39.7534 20.6489C43.0245 20.6634 44.5575 23.466 44.3521 29.0568C44.2788 31.1226 43.6187 32.7623 42.3718 33.9758C41.2716 35.0738 39.9587 35.6227 38.4332 35.6227C37.1276 35.6227 35.9908 35.1388 35.0226 34.1708C33.8638 33.0007 33.2843 31.3682 33.2843 29.2735C33.2843 27.1788 33.7611 25.3152 34.7146 23.6827Z" fill="#555555"/>
</svg>
