<svg width="512" height="512" viewBox="0 0 512 512" fill="none" xmlns="http://www.w3.org/2000/svg">
<path fill-rule="evenodd" clip-rule="evenodd" d="M183.547 25.5996C162.206 25.5996 144.906 42.7925 144.906 63.999V97.5996H38.6417C17.3003 97.5996 0 114.792 0 135.999V294.454C0 310.381 9.82643 324.306 24.1509 330.057V447.999C24.1509 469.207 41.4512 486.4 62.7926 486.4H144.908C152.911 486.4 159.399 479.953 159.399 471.999C159.399 464.046 152.911 457.599 144.908 457.599H62.7926C57.4573 457.599 53.132 453.301 53.132 447.999V336.176L231.851 363.029V375.999C231.851 389.254 242.664 399.999 256.002 399.999C269.341 399.999 280.153 389.254 280.153 375.999V363.028L364.269 350.389C371.449 349.31 376.757 343.178 376.757 335.961V335.961C376.757 327.017 368.734 320.178 359.839 321.54L272.894 334.846C268.539 330.611 262.577 327.999 256.002 327.999C249.427 327.999 243.466 330.609 239.11 334.846L37.1713 303.943C32.4591 303.221 28.9811 299.193 28.9811 294.454V135.999C28.9811 130.698 33.3063 126.4 38.6417 126.4H144.906H367.094H473.359C478.694 126.4 483.019 130.698 483.019 135.999V294.454C483.019 299.193 479.541 303.221 474.829 303.943L413.42 313.34C406.221 314.442 400.908 320.597 400.908 327.835V327.835C400.908 336.808 408.944 343.677 417.872 342.335L458.868 336.176V447.999C458.868 453.301 454.543 457.599 449.208 457.599H198.04C190.037 457.599 183.55 464.046 183.55 471.999C183.55 479.953 190.037 486.4 198.04 486.4H449.208C470.549 486.4 487.849 469.207 487.849 447.999V330.057C502.174 324.306 512 310.381 512 294.454V135.999C512 114.792 494.7 97.5996 473.359 97.5996H367.094V63.999C367.094 42.7925 349.794 25.5996 328.453 25.5996H183.547ZM338.113 97.5996V63.999C338.113 58.6977 333.788 54.3999 328.453 54.3999H183.547C178.212 54.3999 173.887 58.6977 173.887 63.999V97.5996H338.113Z" fill="#7BDFF2"/>
</svg>
