<svg width="290" height="290" viewBox="0 0 290 290" fill="none" xmlns="http://www.w3.org/2000/svg">
<path fill-rule="evenodd" clip-rule="evenodd" d="M148.046 45.1042C148.189 45.1065 148.331 45.1091 148.474 45.1126C149.057 45.0996 149.641 45.0928 150.227 45.0928H150.264C192.481 45.0928 226.704 79.316 226.704 121.533C226.704 153.548 207.019 180.972 179.09 192.351C175.752 193.711 173.398 196.859 173.398 200.464V200.464C173.398 205.871 178.514 209.828 183.557 207.88C186.738 206.651 189.833 205.252 192.832 203.694C222.892 213.063 248.701 232.09 266.623 257.147C268.325 259.527 271.042 261 273.967 261V261C280.689 261 284.83 253.769 280.958 248.274C263.378 223.331 238.84 203.644 210.16 192.036C230.1 175.068 242.76 149.779 242.76 121.533C242.76 70.4284 201.331 29 150.227 29C149.642 29 149.057 29.0057 148.474 29.0164C148.11 29.0095 147.745 29.0046 147.379 29.0023C147.16 29.0008 146.941 29 146.722 29C95.6177 29 54.1893 70.4284 54.1893 121.533C54.1893 149.779 66.8487 175.068 86.789 192.036C58.1092 203.644 33.5711 223.331 15.9915 248.274C12.1191 253.769 16.2598 261 22.9816 261V261C25.9073 261 28.6242 259.527 30.3262 257.147C48.2477 232.09 74.0574 213.063 104.117 203.694C107.116 205.252 110.211 206.651 113.392 207.88C118.435 209.828 123.551 205.871 123.551 200.464V200.464C123.551 196.859 121.197 193.711 117.859 192.351C89.9299 180.972 70.2448 153.548 70.2448 121.533C70.2448 79.316 104.468 45.0928 146.685 45.0928H146.722C147.164 45.0928 147.605 45.0966 148.046 45.1042Z" fill="#7BDFF2"/>
</svg>
