<svg width="110" height="110" viewBox="0 0 110 110" fill="none" xmlns="http://www.w3.org/2000/svg">
<path fill-rule="evenodd" clip-rule="evenodd" d="M56.1552 17.1085C56.2094 17.1094 56.2637 17.1104 56.3179 17.1117C56.5389 17.1068 56.7605 17.1042 56.9826 17.1042H56.9966C73.01 17.1042 85.9912 30.0854 85.9912 46.0986C85.9912 58.2424 78.5245 68.6445 67.9309 72.9607C66.6645 73.4766 65.7716 74.6706 65.7716 76.0381V76.0381C65.7716 78.0889 67.7121 79.5898 69.6252 78.8509C70.8315 78.385 72.0055 77.8544 73.143 77.2634C84.5451 80.817 94.335 88.0343 101.133 97.5385C101.778 98.4412 102.809 99 103.919 99V99C106.468 99 108.039 96.2571 106.57 94.1731C99.902 84.7119 90.5944 77.2443 79.7159 72.8411C87.2794 66.4051 92.0813 56.8127 92.0813 46.0986C92.0813 26.7142 76.367 11 56.9826 11C56.7606 11 56.539 11.0022 56.3179 11.0062C56.1796 11.0036 56.0411 11.0017 55.9025 11.0009C55.8194 11.0003 55.7363 11 55.6532 11C36.2688 11 20.5546 26.7142 20.5546 46.0986C20.5546 56.8127 25.3564 66.4051 32.92 72.8411C22.0414 77.2443 12.7339 84.7119 6.06573 94.1731C4.59691 96.2571 6.16749 99 8.71716 99V99C9.8269 99 10.8575 98.4412 11.5031 97.5385C18.3009 88.0343 28.0907 80.817 39.4928 77.2634C40.6303 77.8544 41.8043 78.385 43.0106 78.8509C44.9237 79.5898 46.8642 78.0889 46.8642 76.0381V76.0381C46.8642 74.6706 45.9713 73.4766 44.705 72.9607C34.1113 68.6445 26.6446 58.2424 26.6446 46.0986C26.6446 30.0854 39.6258 17.1042 55.6392 17.1042H55.6532C55.821 17.1042 55.9881 17.1056 56.1552 17.1085Z" fill="#555555"/>
</svg>
