<svg width="110" height="110" viewBox="0 0 110 110" fill="none" xmlns="http://www.w3.org/2000/svg">
<path fill-rule="evenodd" clip-rule="evenodd" d="M39.434 5.5C34.8489 5.5 31.1321 9.19378 31.1321 13.7499V20.9687H8.30192C3.71685 20.9687 0 24.6625 0 29.2186V63.2617C0 66.6835 2.11115 69.6752 5.18868 70.9108V96.2498C5.18868 100.806 8.90553 104.5 13.4906 104.5H31.1326C32.852 104.5 34.2458 103.115 34.2458 101.406C34.2458 99.6975 32.852 98.3124 31.1326 98.3124H13.4906C12.3443 98.3124 11.4151 97.3891 11.4151 96.2498V72.2253L49.8118 77.9946V80.7811C49.8118 83.6289 52.1349 85.9373 55.0005 85.9373C57.8662 85.9373 60.1892 83.6289 60.1892 80.7811V77.9943L78.2609 75.279C79.8035 75.0472 80.9439 73.7296 80.9439 72.1793V72.1793C80.9439 70.2577 79.2202 68.7884 77.3091 69.0809L58.6295 71.9395C57.6938 71.0297 56.4131 70.4686 55.0005 70.4686C53.5878 70.4686 52.3071 71.0294 51.3714 71.9395L7.98602 65.3004C6.97363 65.1452 6.2264 64.2798 6.2264 63.2617V29.2186C6.2264 28.0797 7.15565 27.1563 8.30192 27.1563H31.1321H78.8679H101.698C102.844 27.1563 103.774 28.0797 103.774 29.2186V63.2617C103.774 64.2798 103.026 65.1452 102.014 65.3004L88.8206 67.3193C87.2741 67.5559 86.1326 68.8784 86.1326 70.4333V70.4333C86.1326 72.3611 87.8591 73.8369 89.7772 73.5487L98.5849 72.2253V96.2498C98.5849 97.3891 97.6557 98.3124 96.5095 98.3124H42.5477C40.8283 98.3124 39.4345 99.6975 39.4345 101.406C39.4345 103.115 40.8283 104.5 42.5477 104.5H96.5095C101.094 104.5 104.811 100.806 104.811 96.2498V70.9108C107.889 69.6752 110 66.6835 110 63.2617V29.2186C110 24.6625 106.283 20.9687 101.698 20.9687H78.8679V13.7499C78.8679 9.19378 75.1511 5.5 70.5661 5.5H39.434ZM72.6415 20.9687V13.7499C72.6415 12.6109 71.7123 11.6876 70.5661 11.6876H39.434C38.2877 11.6876 37.3585 12.6109 37.3585 13.7499V20.9687H72.6415Z" fill="#555555"/>
</svg>
