<svg width="28" height="29" viewBox="0 0 28 29" fill="none" xmlns="http://www.w3.org/2000/svg">
<path fill-rule="evenodd" clip-rule="evenodd" d="M25.082 14.7222C25.082 20.8438 20.1194 25.8064 13.9978 25.8064C7.87617 25.8064 2.9136 20.8438 2.9136 14.7222C2.9136 8.60054 7.87617 3.63797 13.9978 3.63797C20.1194 3.63797 25.082 8.60054 25.082 14.7222ZM26.4675 14.7222C26.4675 21.609 20.8847 27.1919 13.9978 27.1919C7.11097 27.1919 1.52808 21.609 1.52808 14.7222C1.52808 7.83533 7.11097 2.25244 13.9978 2.25244C20.8847 2.25244 26.4675 7.83533 26.4675 14.7222ZM13.2124 9.96549C12.9419 9.69494 12.5032 9.69494 12.2327 9.96549C11.9622 10.236 11.9622 10.6747 12.2327 10.9452L16.1323 14.8448C16.1864 14.8989 16.1864 14.9866 16.1323 15.0407L12.2327 18.9403C11.9622 19.2108 11.9622 19.6495 12.2327 19.92C12.5032 20.1905 12.9419 20.1905 13.2124 19.92L17.21 15.9225C17.751 15.3814 17.751 14.5041 17.21 13.963L13.2124 9.96549Z" fill="#555555"/>
</svg>
