<svg width="768" height="768" viewBox="0 0 768 768" fill="none" xmlns="http://www.w3.org/2000/svg">
<path fill-rule="evenodd" clip-rule="evenodd" d="M314.987 76.8008C184.123 76.8008 78.0376 182.887 78.0376 313.75C78.0376 444.614 184.123 550.7 314.987 550.7C372.316 550.7 424.9 530.334 465.882 496.449L615.647 646.214C624.43 654.996 638.668 654.996 647.451 646.214C656.233 637.432 656.233 623.193 647.451 614.41L497.685 464.645C531.571 423.663 551.936 371.079 551.936 313.75C551.936 182.887 445.851 76.8008 314.987 76.8008ZM123.015 313.75C123.015 207.727 208.964 121.778 314.987 121.778C421.01 121.778 506.959 207.727 506.959 313.75C506.959 419.773 421.01 505.722 314.987 505.722C208.964 505.722 123.015 419.773 123.015 313.75Z" fill="#7BDFF2"/>
</svg>
