<svg id="Capa_1" data-name="Capa 1" xmlns="http://www.w3.org/2000/svg" xmlns:xlink="http://www.w3.org/1999/xlink" viewBox="0 0 1008 767.3"><defs><style>.cls-1{fill:#ebc63a;}.cls-2{fill:#987e36;}.cls-3{fill:url(#Degradado_sin_nombre_17);}.cls-4{fill:url(#Degradado_sin_nombre_110);}.cls-5{opacity:0.07;}.cls-6{fill:url(#Degradado_sin_nombre_27);}.cls-7{fill:url(#Degradado_sin_nombre_170);}.cls-8{fill:url(#Degradado_sin_nombre_7);}.cls-10,.cls-19,.cls-48,.cls-9{opacity:0.12;}.cls-9{fill:url(#Degradado_sin_nombre_27-2);}.cls-10{fill:url(#Degradado_sin_nombre_27-3);}.cls-11{fill:url(#Degradado_sin_nombre_7-2);}.cls-12{fill:url(#Degradado_sin_nombre_154);}.cls-13{fill:url(#Degradado_sin_nombre_45);}.cls-14{fill:url(#Degradado_sin_nombre_17-2);}.cls-15{opacity:0.3;}.cls-16,.cls-18,.cls-44{opacity:0.2;}.cls-16{fill:url(#Degradado_sin_nombre_27-4);}.cls-17{fill:url(#Degradado_sin_nombre_7-3);}.cls-18{fill:url(#Degradado_sin_nombre_27-5);}.cls-20{fill:url(#Degradado_sin_nombre_27-6);}.cls-21{fill:url(#Degradado_sin_nombre_27-7);}.cls-22{fill:url(#Degradado_sin_nombre_27-8);}.cls-23{fill:url(#Degradado_sin_nombre_27-9);}.cls-24,.cls-30{opacity:0.1;}.cls-24{fill:url(#Degradado_sin_nombre_27-10);}.cls-25{fill:url(#Degradado_sin_nombre_7-4);}.cls-26{fill:url(#Degradado_sin_nombre_154-2);}.cls-27{fill:url(#Degradado_sin_nombre_154-3);}.cls-28{fill:url(#Degradado_sin_nombre_47);}.cls-29{fill:url(#Degradado_sin_nombre_13);}.cls-30{fill:url(#Degradado_sin_nombre_27-11);}.cls-31{fill:url(#Degradado_sin_nombre_7-5);}.cls-32{fill:url(#Degradado_sin_nombre_27-12);}.cls-33{opacity:0.9;fill:url(#Degradado_sin_nombre_94);}.cls-34,.cls-40{opacity:0.4;}.cls-35{fill:#181818;}.cls-36{fill:url(#Degradado_sin_nombre_159);}.cls-37{fill:url(#Degradado_sin_nombre_159-2);}.cls-38{fill:url(#Degradado_sin_nombre_10);}.cls-39{fill:#e3acc8;}.cls-40,.cls-47{fill:#bb6a96;}.cls-41{fill:#e6b5cd;}.cls-42{fill:url(#Degradado_sin_nombre_27-13);}.cls-43{fill:url(#Degradado_sin_nombre_27-14);}.cls-44{fill:url(#Degradado_sin_nombre_27-15);}.cls-45{fill:url(#Degradado_sin_nombre_7-6);}.cls-46{fill:url(#Degradado_sin_nombre_36);}.cls-48{fill:url(#Degradado_sin_nombre_27-16);}.cls-49{fill:url(#Degradado_sin_nombre_7-7);}.cls-50{fill:url(#Degradado_sin_nombre_47-2);}.cls-51{fill:url(#Degradado_sin_nombre_47-3);}.cls-52{fill:url(#Degradado_sin_nombre_158);}.cls-53{fill:none;}</style><linearGradient id="Degradado_sin_nombre_17" x1="479.63" y1="734.28" x2="818.21" y2="371.97" gradientUnits="userSpaceOnUse"><stop offset="0" stop-color="#669d63"/><stop offset="0.99" stop-color="#90cc8e"/></linearGradient><linearGradient id="Degradado_sin_nombre_110" x1="472.84" y1="553.37" x2="472.84" y2="544.93" gradientUnits="userSpaceOnUse"><stop offset="0" stop-color="#478695"/><stop offset="1" stop-color="#8bdef1"/></linearGradient><linearGradient id="Degradado_sin_nombre_27" x1="147.75" y1="709.87" x2="369.88" y2="709.87" gradientUnits="userSpaceOnUse"><stop offset="0" stop-color="#272727"/><stop offset="1" stop-color="#363636"/></linearGradient><radialGradient id="Degradado_sin_nombre_170" cx="496.05" cy="858.06" r="347.17" gradientTransform="translate(-9 619.3) scale(1 0.11)" gradientUnits="userSpaceOnUse"><stop offset="0" stop-color="#272727" stop-opacity="0.5"/><stop offset="0.07" stop-color="#292929" stop-opacity="0.43"/><stop offset="0.55" stop-color="#333" stop-opacity="0.11"/><stop offset="1" stop-color="#363636" stop-opacity="0"/></radialGradient><linearGradient id="Degradado_sin_nombre_7" x1="237.99" y1="296.11" x2="168.02" y2="54.57" gradientUnits="userSpaceOnUse"><stop offset="0" stop-color="#5aacc1"/><stop offset="1" stop-color="#8bdef1"/></linearGradient><linearGradient id="Degradado_sin_nombre_27-2" x1="614.5" y1="356.29" x2="762.51" y2="356.29" xlink:href="#Degradado_sin_nombre_27"/><linearGradient id="Degradado_sin_nombre_27-3" x1="197.62" y1="354.39" x2="418.51" y2="354.39" xlink:href="#Degradado_sin_nombre_27"/><linearGradient id="Degradado_sin_nombre_7-2" x1="549.85" y1="829.45" x2="271.39" y2="717.11" xlink:href="#Degradado_sin_nombre_7"/><linearGradient id="Degradado_sin_nombre_154" x1="356.39" y1="303.4" x2="-243.36" y2="100.4" gradientUnits="userSpaceOnUse"><stop offset="0" stop-color="#478698"/><stop offset="1" stop-color="#8bdef1"/></linearGradient><linearGradient id="Degradado_sin_nombre_45" x1="602.22" y1="478.66" x2="908.41" y2="478.66" gradientTransform="matrix(0.98, -0.1, 0.01, 0.88, 9.96, 90.75)" gradientUnits="userSpaceOnUse"><stop offset="0" stop-color="#548051"/><stop offset="0.99" stop-color="#80b37d"/></linearGradient><linearGradient id="Degradado_sin_nombre_17-2" x1="596.34" y1="485.72" x2="909.07" y2="485.72" gradientTransform="matrix(0.98, -0.1, 0.01, 0.88, 9.96, 90.75)" xlink:href="#Degradado_sin_nombre_17"/><linearGradient id="Degradado_sin_nombre_27-4" x1="-3150.05" y1="2690.89" x2="1843.53" y2="-399.6" xlink:href="#Degradado_sin_nombre_27"/><linearGradient id="Degradado_sin_nombre_7-3" x1="444.94" y1="393.16" x2="326.28" y2="238.11" xlink:href="#Degradado_sin_nombre_7"/><linearGradient id="Degradado_sin_nombre_27-5" x1="366.37" y1="347.9" x2="483.89" y2="275.99" xlink:href="#Degradado_sin_nombre_27"/><linearGradient id="Degradado_sin_nombre_27-6" x1="117.11" y1="405.41" x2="201.88" y2="405.41" xlink:href="#Degradado_sin_nombre_27"/><linearGradient id="Degradado_sin_nombre_27-7" x1="179.69" y1="452.38" x2="259.3" y2="452.38" xlink:href="#Degradado_sin_nombre_27"/><linearGradient id="Degradado_sin_nombre_27-8" x1="230.68" y1="502.82" x2="328.25" y2="502.82" xlink:href="#Degradado_sin_nombre_27"/><linearGradient id="Degradado_sin_nombre_27-9" x1="290.1" y1="612.33" x2="436.53" y2="612.33" xlink:href="#Degradado_sin_nombre_27"/><linearGradient id="Degradado_sin_nombre_27-10" x1="547.76" y1="404.78" x2="669.29" y2="404.78" xlink:href="#Degradado_sin_nombre_27"/><linearGradient id="Degradado_sin_nombre_7-4" x1="157.99" y1="173.71" x2="183.46" y2="341.47" xlink:href="#Degradado_sin_nombre_7"/><linearGradient id="Degradado_sin_nombre_154-2" x1="276" y1="355.63" x2="250.52" y2="310.48" xlink:href="#Degradado_sin_nombre_154"/><linearGradient id="Degradado_sin_nombre_154-3" x1="356.87" y1="301.89" x2="-242.77" y2="99.37" xlink:href="#Degradado_sin_nombre_154"/><linearGradient id="Degradado_sin_nombre_47" x1="371.6" y1="414.29" x2="366.16" y2="398.25" gradientUnits="userSpaceOnUse"><stop offset="0" stop-color="#539fb3"/><stop offset="1" stop-color="#8bdef1"/></linearGradient><linearGradient id="Degradado_sin_nombre_13" x1="81.54" y1="769.97" x2="667.19" y2="407.51" gradientUnits="userSpaceOnUse"><stop offset="0" stop-color="#e1e74f"/><stop offset="1" stop-color="#f9ff72"/></linearGradient><linearGradient id="Degradado_sin_nombre_27-11" x1="358.46" y1="678.59" x2="434.39" y2="678.59" xlink:href="#Degradado_sin_nombre_27"/><linearGradient id="Degradado_sin_nombre_7-5" x1="329.86" y1="394.78" x2="217.53" y2="255.55" xlink:href="#Degradado_sin_nombre_7"/><linearGradient id="Degradado_sin_nombre_27-12" x1="331.9" y1="387.8" x2="533.29" y2="264.58" xlink:href="#Degradado_sin_nombre_27"/><radialGradient id="Degradado_sin_nombre_94" cx="467.92" cy="527.09" r="270.21" gradientUnits="userSpaceOnUse"><stop offset="0.52" stop-color="#96d7e6"/><stop offset="1" stop-color="#e7faff" stop-opacity="0"/></radialGradient><linearGradient id="Degradado_sin_nombre_159" x1="346.86" y1="582.89" x2="314.83" y2="442.96" gradientUnits="userSpaceOnUse"><stop offset="0.24" stop-color="#d5d252" stop-opacity="0.8"/><stop offset="0.31" stop-color="#d6d353" stop-opacity="0.77"/><stop offset="0.4" stop-color="#dad856" stop-opacity="0.7"/><stop offset="0.51" stop-color="#dfdf5b" stop-opacity="0.57"/><stop offset="0.63" stop-color="#e7e962" stop-opacity="0.4"/><stop offset="0.75" stop-color="#f1f56b" stop-opacity="0.18"/><stop offset="0.83" stop-color="#f9ff72" stop-opacity="0"/></linearGradient><linearGradient id="Degradado_sin_nombre_159-2" x1="533.51" y1="543.38" x2="662.49" y2="478.89" xlink:href="#Degradado_sin_nombre_159"/><linearGradient id="Degradado_sin_nombre_10" x1="346.58" y1="714.41" x2="547.51" y2="526.13" gradientUnits="userSpaceOnUse"><stop offset="0" stop-color="#ccc"/><stop offset="1" stop-color="#ececec"/></linearGradient><linearGradient id="Degradado_sin_nombre_27-13" x1="507.09" y1="343.58" x2="506.04" y2="363.61" gradientTransform="translate(64.4 -121.4) rotate(13.7)" xlink:href="#Degradado_sin_nombre_27"/><linearGradient id="Degradado_sin_nombre_27-14" x1="716.2" y1="292.66" x2="715.15" y2="312.68" gradientTransform="matrix(-0.97, 0.24, 0.24, 0.97, 1110.36, -121.4)" xlink:href="#Degradado_sin_nombre_27"/><linearGradient id="Degradado_sin_nombre_27-15" x1="517.75" y1="288.33" x2="298.76" y2="430.95" xlink:href="#Degradado_sin_nombre_27"/><linearGradient id="Degradado_sin_nombre_7-6" x1="521.93" y1="283.28" x2="286.02" y2="436.92" xlink:href="#Degradado_sin_nombre_7"/><linearGradient id="Degradado_sin_nombre_36" x1="505.99" y1="270.84" x2="547.47" y2="234.98" gradientUnits="userSpaceOnUse"><stop offset="0" stop-color="#363636"/><stop offset="1" stop-color="#565656"/></linearGradient><linearGradient id="Degradado_sin_nombre_27-16" x1="538.44" y1="711.69" x2="603.39" y2="677.55" xlink:href="#Degradado_sin_nombre_27"/><linearGradient id="Degradado_sin_nombre_7-7" x1="454.61" y1="846.6" x2="794.77" y2="667.82" xlink:href="#Degradado_sin_nombre_7"/><linearGradient id="Degradado_sin_nombre_47-2" x1="414.3" y1="800.95" x2="786.77" y2="800.95" xlink:href="#Degradado_sin_nombre_47"/><linearGradient id="Degradado_sin_nombre_47-3" x1="487.49" y1="832.11" x2="106.72" y2="522.01" xlink:href="#Degradado_sin_nombre_47"/><linearGradient id="Degradado_sin_nombre_158" x1="440.05" y1="834.71" x2="426.47" y2="885.34" gradientUnits="userSpaceOnUse"><stop offset="0" stop-color="#e6b5cd"/><stop offset="0.79" stop-color="#dc98b7"/></linearGradient></defs><title>illustration-me</title><path class="cls-1" d="M450.9,387.4C343.8,284.6,192.7,256.1,61.2,300.5a57.6,57.6,0,0,0-36.7,38.2c-39,133.3-4.3,283.1,102.8,385.9S385.5,855.8,517,811.4a57.2,57.2,0,0,0,36.7-38.2C592.7,640,558,490.1,450.9,387.4Z" transform="translate(-9 -137.4)"/><path class="cls-2" d="M117.6,378.3a1.2,1.2,0,0,1,1.2-2.1,594.1,594.1,0,0,1,99.1,52.3,545.2,545.2,0,0,1,93.4,76.9c6.9,7.4,13.8,14.8,20.6,22.3L351.2,551c6,8.1,12.1,16.1,18,24.3S380.4,592,386,600.5c1.3,2.1,2.7,4.1,4,6.3l3.8,6.5,7.6,13.1c2.4,4.4,5,8.6,7.3,13.1l6.8,13.5a478.3,478.3,0,0,1,20.9,47.5,1.2,1.2,0,0,1-2.1,1.1c-4.4-5.8-8.7-11.6-13-17.5-5.7-8.1-11.8-15.9-17.7-23.8l-8.8-12c-2.9-3.9-6-7.8-9-11.7l-9-11.7-4.4-5.8-4.6-5.8-9.3-11.4c-3-3.8-5.9-7.7-9.1-11.4-6.4-7.4-12.6-14.9-18.9-22.4s-13-14.5-19.5-21.8l-20-21.2a991.9,991.9,0,0,0-86.3-78.7l-11.4-9.3c-1.8-1.6-3.8-3.1-5.7-4.6l-5.8-4.6-11.6-9.1-11.8-9c-7.7-6.2-15.7-12-23.6-18.2L123,382.5Z" transform="translate(-9 -137.4)"/><path class="cls-3" d="M783.3,505.9c36.1-40.8,116.9-44.9,173.4-42.1a16.9,16.9,0,0,0,16-9.5l1.5-3.2c96.3-206,0-311.8,0-311.8-68.8,2.1-130.1,5.7-183.5,23.9a5.7,5.7,0,0,0-3.5,7.1c16.5,51.7,37,130.6,33.9,188.2,0,0-6.9-94.4-59.8-176.8a6.6,6.6,0,0,0-8.5-2.2c-67.5,35.8-120,105-156.6,241.3l-60.5,94.5L524.4,659l98.3,35.9c79.9-11.2,207.3-30.6,303-161.2a10.4,10.4,0,0,0-.7-13.2C877.5,469.1,783.3,505.9,783.3,505.9Z" transform="translate(-9 -137.4)"/><rect class="cls-4" x="396.3" y="531" width="153.1" height="92.6"/><g class="cls-5"><path class="cls-6" d="M320.3,634.4c-98-50.7-164.4-35.9-172,32.1-5.7,51.4,31.7,94.1,73.9,125A393.3,393.3,0,0,0,278.1,814C335.3,831.9,427.9,690.1,320.3,634.4Z" transform="translate(-9 -137.4)"/></g><ellipse class="cls-7" cx="487" cy="711.5" rx="379.8" ry="55.7"/><path class="cls-8" d="M294.4,276.8a53.9,53.9,0,0,0-6.8-15.2l-1.3-1.8-1.4-1.8a34,34,0,0,0-3.2-3.4,40.3,40.3,0,0,0-7.6-5.4,49.6,49.6,0,0,0-16.7-5.2,105.6,105.6,0,0,0-15.7-.9c-10.1.2-19.8.9-29.5,1H197.4a71.3,71.3,0,0,1-13.2-2.2,34.9,34.9,0,0,1-11.4-5.7,28.6,28.6,0,0,1-8.1-9.8c-4-8-5.1-17.7-5.1-27.3,0-4.9.3-9.8.7-14.7v-1.9l.3-5.6v-.8a31.1,31.1,0,0,0-.2-6.8l-1.7.2a32.1,32.1,0,0,1-.7,6.8v.4l-1.1,5.8-.3,1.4c-1,4.9-1.8,9.8-2.4,14.9a86.3,86.3,0,0,0-.6,15.3,51.7,51.7,0,0,0,3.2,15.7,39.1,39.1,0,0,0,9.3,13.9,46.4,46.4,0,0,0,14.3,8.9,78.4,78.4,0,0,0,15.7,3.9h.1l7.8.7,7.4.5h.1c9.9.5,19.8,1.2,29.4,2.2s18.8,1.7,25.6,4.5a24.9,24.9,0,0,1,9.1,6.3,59.1,59.1,0,0,1,7.7,10.6c4.6,8.2,8.7,17.3,13.4,26.3l1.6-.4A109.7,109.7,0,0,0,294.4,276.8Z" transform="translate(-9 -137.4)"/><path class="cls-9" d="M762.5,298A132.3,132.3,0,0,1,630.2,430.3C557.2,430.3,762.5,224.9,762.5,298Z" transform="translate(-9 -137.4)"/><circle class="cls-1" cx="628.8" cy="153.1" r="132.3"/><path class="cls-10" d="M298,297.3c.3,3.3.4,6.6.4,10l-1.6.4c-2.2-4.3-4.3-8.5-6.3-12.7-7.9-2.2-15.9-4.2-23.8-5.9a100.9,100.9,0,0,0-13.2,37.2c-2-1.3-4-2.8-5.9-4.3-8.6-7.1-16.4-14.8-22.3-23.3a75.2,75.2,0,0,1-9.2-17.2c-6.1-.5-12.3-.8-18.5-1a65.6,65.6,0,0,0,3.9,12.1,70.3,70.3,0,0,0,10.3,16.5A96.8,96.8,0,0,0,241,332a72.9,72.9,0,0,0,11.5,4.7c-1.4,29.2,9.5,59.6,41.3,74.7,71.9,34,105.9,11.3,115.3-20.8,2.1-7.1,5.4-18.1,9.4-31.1A380.1,380.1,0,0,0,298,297.3Z" transform="translate(-9 -137.4)"/><path class="cls-11" d="M434.7,841.3c-67.2,10.4-105,10.4-159.8-19.8S152.1,738.3,159.7,670.3s73.9-82.9,171.9-32.1C439.2,693.8,486.2,747.6,496,789.4,504.8,826.4,434.7,841.3,434.7,841.3Z" transform="translate(-9 -137.4)"/><path class="cls-12" d="M290.5,295l7.5,2.3a96.9,96.9,0,0,0-3.6-20.5,50,50,0,0,0-3.6-9.5,37.3,37.3,0,0,0-12,7.1c1.6,2.2,3.1,4.5,4.6,7C285.8,285.7,288.1,290.3,290.5,295Z" transform="translate(-9 -137.4)"/><path class="cls-13" d="M606,583.5a1293.9,1293.9,0,0,0,110.9-77c34.1-26.6,65-53.9,91.4-81.3,6.4-6.8,12.8-13.6,19.1-20.5s11.7-13.6,17.4-20.4,10.7-13.5,15.8-20.2,9.5-13.4,14.1-20l3.4-5,3-5,6-9.8c1.9-3.3,4.1-6.6,5.8-9.8l3.8-8.9c2.5-4.8,2.8-10.9,5.7-15.2s-1.2-7.2-3.8-3.7l-.2.2c-4.9,6.7-10.4,13.3-15.5,20l-7.6,9.8-8,10-7.9,9.8-3.9,5-4.2,4.9-8.3,9.9c-2.7,3.3-5.2,6.6-8.2,9.9-5.8,6.5-11.4,13.1-17.1,19.7l-17.9,19.7-18.7,19.7c-25.3,26.2-53.1,52.5-82.8,78.7l-11.2,9.9c-1.8,1.7-3.7,3.3-5.6,4.9l-5.8,5-11.4,9.9-11.6,9.9c-7.7,6.6-15.7,13.2-23.4,19.9l-11.8,10Z" transform="translate(-9 -137.4)"/><path class="cls-14" d="M600.3,594.9a1294.4,1294.4,0,0,0,110.9-77.1c34.1-26.6,65-53.9,91.4-81.2l19.1-20.5,17.5-20.4c5.2-6.8,10.6-13.5,15.7-20.3s9.5-13.3,14.1-20l3.4-5,3-4.9c2.1-3.3,4.1-6.6,6.1-9.9s4-6.6,5.7-9.8l5.1-9.7c4.9-9.2,8.5-18.7,11.9-27.5.8-2.1-1.6-3-2.9-1.4-2.9,3.7-5.8,7.4-8.5,11.1-4.9,6.6-10.4,13.3-15.6,19.9l-7.6,9.9c-2.5,3.3-5.3,6.6-8,9.9l-7.9,9.9-3.9,4.9-4.2,5-8.2,9.8c-2.8,3.3-5.3,6.6-8.2,9.9-5.9,6.6-11.5,13.1-17.2,19.7s-11.9,13.2-17.9,19.7l-18.6,19.7c-25.4,26.3-53.2,52.5-82.9,78.8l-11.2,9.8-5.6,5-5.7,4.9L658.6,545,647,554.9l-23.4,19.9-11.7,10Z" transform="translate(-9 -137.4)"/><g class="cls-15"><path class="cls-16" d="M455.8,392.1l-3.6-3.5-1-1-1,1.2a39.3,39.3,0,0,1-1.4,9.8L438,400.7c-10,2.1-19.5,4.3-28.6,6.5-41.4,10-71.3,20.3-77.8,22.2-13.2,3.9-47.2,21.3-49.1,54.1s22.7,87.1,32.1,94.8,52.9,15.5,94.5,19.4l24.6-86.1c-10.5.4,41.6-98.3,41.6-98.3Z" transform="translate(-9 -137.4)"/></g><path class="cls-17" d="M458.3,245.1c11.3-43.5,9.4-79.4-43.5-75.6s-22.7,81.3-35.9,100.2-18.9,18.9-66.2,0-91.8,107.2-15.1,143.6c71.8,34,105.8,11.3,115.3-20.8S458.3,245.1,458.3,245.1Z" transform="translate(-9 -137.4)"/><path class="cls-18" d="M464.5,346.2l14.5-103c-17-26.5-47.2,3.8-52.9,22.7s6,50.1,15.1,77.5C448.8,366,464.5,346.2,464.5,346.2Z" transform="translate(-9 -137.4)"/><g class="cls-19"><path class="cls-20" d="M201.9,401.6h0a2,2,0,0,0-1.9-1.9,27.8,27.8,0,0,0-11.1,2.6,38.1,38.1,0,0,0-11.8,8.3,43.1,43.1,0,0,0-5.1,6.2l-11.7-8.9c-7.7-6.2-15.7-12-23.6-18.1l-11.9-9.1c-1.6-1.4-3.3-2.7-5-4l-1-.5a1.2,1.2,0,0,0-1.2,2.1l5.4,4.2,11.8,9.1c7.9,6.2,15.9,12,23.6,18.2l11.8,9,.4.2h0c-.6,1-1.2,2-1.7,3a40.7,40.7,0,0,0-3.6,10.5,1.9,1.9,0,0,0,1.9,2.2v-.3a40.7,40.7,0,0,1,3.6-10.5,43.5,43.5,0,0,1,8.2-11.4,37,37,0,0,1,11.8-8.3A27.8,27.8,0,0,1,201.9,401.6Z" transform="translate(-9 -137.4)"/><path class="cls-21" d="M259.3,435.5a1.9,1.9,0,0,0-1.7-1.9c-5.8-.6-11.4.8-16.6,2.9a49.7,49.7,0,0,0-15.7,10.9,56.2,56.2,0,0,0-6.2,7.5l-12.5-10.4-11.4-9.3-5.7-4.6-5.8-4.6-2-1.5-2,1.8,2.1,1.6,5.8,4.6c1.9,1.5,3.9,3,5.7,4.6l11.4,9.3c4.4,3.5,8.7,7.1,13,10.7a59.5,59.5,0,0,0-3.1,5.5,49.6,49.6,0,0,0-4.6,15.6,2,2,0,0,0,1.9,2.1v-.2a49.6,49.6,0,0,1,4.6-15.6,57.3,57.3,0,0,1,10.7-15.2,47.1,47.1,0,0,1,15.7-10.9A35,35,0,0,1,259.3,435.5Z" transform="translate(-9 -137.4)"/><path class="cls-22" d="M328.2,478.7a1.9,1.9,0,0,0-1.5-1.8c-8.5-1.7-16.7-.1-24.2,2.7A61.4,61.4,0,0,0,281.4,494a66.5,66.5,0,0,0-8,9.7q-19.8-19.1-40.7-37.2l-2,1.7q21.2,18.4,41.2,37.8l.9-1.3a60.9,60.9,0,0,0-5.3,9.7,58.3,58.3,0,0,0-2.3,5.8,62.9,62.9,0,0,0-1.7,6.2,53.2,53.2,0,0,0-1.4,10.9,2,2,0,0,0,1.9,1.9h0a53.1,53.1,0,0,1,1.4-10.8,62.9,62.9,0,0,1,1.7-6.2c.7-2,1.4-3.9,2.2-5.8a69.3,69.3,0,0,1,14-20.4,61.4,61.4,0,0,1,21.1-14.4C311.8,478.7,319.9,477.2,328.2,478.7Z" transform="translate(-9 -137.4)"/><path class="cls-23" d="M436.4,700.5l-.3-1c-4.4-5.7-8.7-11.5-12.9-17.3-5.7-8.1-11.8-15.9-17.7-23.8l-8.8-12c-2.9-3.9-6-7.8-9-11.7l-9-11.7-4.4-5.8-4.6-5.8L360.4,600c-3.1-3.8-5.9-7.7-9.1-11.4-6.5-7.4-12.7-14.9-18.9-22.4s-13-14.5-19.5-21.7l-20-21.2-.7-.8-2.1,1.8.9.8,20,21.2c6.5,7.3,12.9,14.6,19.5,21.8s12.5,15,18.9,22.4c3.2,3.7,6.1,7.6,9.1,11.4l9.3,11.4,4.6,5.8,4.4,5.8,9,11.7c3,3.9,6.1,7.8,9,11.7l8.8,12c5.9,7.9,12,15.7,17.7,23.8,4.3,5.9,8.6,11.7,13,17.5A1.2,1.2,0,0,0,436.4,700.5Z" transform="translate(-9 -137.4)"/></g><path class="cls-24" d="M637.8,422.7a131.3,131.3,0,0,0,31.5-3.8c-4.3-14.8-18.1-27.2-65.9-30.9l-2.7-.2c-9.1-.6-19.4-1-31-1-7.3,0-14.6.2-21.9.5A131.4,131.4,0,0,0,637.8,422.7Z" transform="translate(-9 -137.4)"/><path class="cls-25" d="M160.4,182.6l.3-5.6v-.8l-2.6.2v.4l-1.1,5.8Z" transform="translate(-9 -137.4)"/><path class="cls-26" d="M277.2,340.7c-6.4-4.5-13.4-8.1-20-12-.4,3-.7,6-.9,9.1,6.8,1.8,13.7,3.1,20.2,4.4Z" transform="translate(-9 -137.4)"/><path class="cls-27" d="M212.2,244.1H198c-.7,4-1.3,8.2-1.7,12.4l7.8.7,7.4.5h.1A105.4,105.4,0,0,1,212.2,244.1Z" transform="translate(-9 -137.4)"/><path class="cls-28" d="M402.7,412.1c-26.5,6.8-47,13.3-58,16.8C372.9,433.4,391.6,425.5,402.7,412.1Z" transform="translate(-9 -137.4)"/><path class="cls-2" d="M264.7,539.1a2,2,0,0,1-2.6-1.8,53.2,53.2,0,0,1,1.4-10.9,62.9,62.9,0,0,1,1.7-6.2,58.3,58.3,0,0,1,2.3-5.8A67.2,67.2,0,0,1,281.4,494a61.4,61.4,0,0,1,21.1-14.4c7.5-2.8,15.7-4.4,24.2-2.7a1.9,1.9,0,0,1,1.3,2.9,196.4,196.4,0,0,1-12.5,18,164.3,164.3,0,0,1-13.9,16,126.1,126.1,0,0,1-16.8,14.5C279,532.3,272.7,536.3,264.7,539.1Z" transform="translate(-9 -137.4)"/><path class="cls-29" d="M673.7,446.7c-1.7-23.9,4-49.2-68.4-54.9l-2.7-.2c-9.1-.7-19.4-1-31-1-107.7,0-217.3,38.7-230.5,42.6s-47.3,21.2-49.2,54.1,22.7,87.1,32.2,94.8,52.9,15.5,94.5,19.4l168.2,34.8s4.3-2.9,11-7.8l2.2-1.6c13.1-9.6,33.1-25.3,47.2-40.9C669.9,560.8,675.6,473.8,673.7,446.7Z" transform="translate(-9 -137.4)"/><path class="cls-30" d="M358.5,652.7c4.2,13.1,8.5,25,11.7,33.4a21.9,21.9,0,0,0,18.1,14.1c11.1,1.2,28,3,46.1,4.3C414.5,687.7,389.5,670.4,358.5,652.7Z" transform="translate(-9 -137.4)"/><path class="cls-31" d="M276.5,342.2a124.1,124.1,0,0,1-33.6-12.1,95.6,95.6,0,0,1-29.2-22.9,70.3,70.3,0,0,1-10.3-16.5,66.9,66.9,0,0,1-5.1-19c-1.4-12.9.5-25.4,3.2-37.1,1.3-5.9,2.9-11.6,4.5-17.2l.6-2.1.4-1.7c.3-1.1.3-2.2.5-3.3a20.6,20.6,0,0,0-.8-6.6l-.2-.8-.4-.7-.6-1.6c-.7-1-1.1-2-1.9-3a36.2,36.2,0,0,0-5.1-5.3,53,53,0,0,0-13.9-7.5,75.5,75.5,0,0,0-32.8-3.7,66.9,66.9,0,0,0-16.4,3.6,54,54,0,0,0-14.9,8.1l-1.1-1.3c8.5-8.3,19.9-13.4,31.6-15.7a81.6,81.6,0,0,1,36.1.9,55.2,55.2,0,0,1,17.2,7.7,33.3,33.3,0,0,1,7.5,6.6,31.5,31.5,0,0,1,3.1,4.1c.5.8.9,1.6,1.3,2.4l.6,1.1.5,1.3a31.7,31.7,0,0,1,2.1,10.5,45.5,45.5,0,0,1-.4,5.3l-.5,2.6-.4,2.1c-1.2,5.7-2.4,11.2-3.3,16.8-1.8,11-2,21.9.2,31.9a71.7,71.7,0,0,0,12.2,27.7c5.9,8.5,13.7,16.2,22.3,23.3s18,13.8,27.7,20.6Z" transform="translate(-9 -137.4)"/><path class="cls-32" d="M514.9,349c5.7-13.2,50.1-78.1,42-81.8-7.1-1.6-12.7-3.1-15.5-5.1-13.2-9.5,3.8-32.1-15.1-49.1s-47.3,7.5-47.3,7.5c-26.4-13.2-44.1,24.4-49.1,43.5-9.4,35.9,20.8,124.7,34,111.5,0,0,15.1-13.2,22.7-5.7S499.8,386.8,514.9,349Z" transform="translate(-9 -137.4)"/><polygon class="cls-33" points="591 525.4 647.7 247.6 487 149.3 313.2 183.3 286.7 283.5 361.6 537.8 591 525.4"/><g class="cls-34"><path class="cls-35" d="M478.1,248.9c-24.5,0-44.4,54.8-44.4,66.1,0,15.9,6.2,38,17.6,53.1.8,1,4.3,15.9,5.1,16.8-1-3.7.2-9.9-1.9-17s-7.5-14.8-9.2-18c0,0-3.9-38.5,7.3-63.2S490.6,248.9,478.1,248.9Z" transform="translate(-9 -137.4)"/></g><path class="cls-36" d="M348.1,431l-7,2.2c-13.2,3.8-47.3,21.2-49.2,54.1s22.7,87.1,32.2,94.8c4.8,3.9,18.4,7.9,36.1,11.3C373.6,534.4,357.5,466.8,348.1,431Z" transform="translate(-9 -137.4)"/><path class="cls-37" d="M673.7,446.7c-1.7-23.9,4-49.2-68.4-54.9l-2.7-.2c-6.8,27.8-12.6,65.4-12.1,102.9.7,50.4,6.2,101.2,7.3,134l2.2-1.6c13.1-9.6,33.1-25.3,47.2-40.9C669.9,560.8,675.6,473.8,673.7,446.7Z" transform="translate(-9 -137.4)"/><path class="cls-38" d="M570.8,704.3a24.5,24.5,0,0,0,23.9-19.4c5.3-25,14-67.7,16.6-88.3s6.5-72.1,8.4-97.7A15.2,15.2,0,0,0,605,482.7c-31.1-.9-100.8-2.4-141.1.5L359.7,497.9a19.2,19.2,0,0,0-16.5,19.4c.5,23.1,2.1,64.5,7.3,90.6s16.9,58.9,23.5,76.4a21.9,21.9,0,0,0,18.1,14c19.8,2.2,58.1,6,88.8,6Z" transform="translate(-9 -137.4)"/><path class="cls-39" d="M516.8,396.3c-2-3.1-6.3-14.1-9.8-26.2-2.9-10.1-5.3-20.9-5.3-28.6l-56.4,8.4a85.3,85.3,0,0,1,8.9,23.2c2.5,11.2,2.5,22.4-1.6,30.7-1.9,3.8,5.7,15.2,24.5,17,0,0,11.4,0,18.9-3.7S520.6,401.9,516.8,396.3Z" transform="translate(-9 -137.4)"/><path class="cls-40" d="M480,388.7c10.1,0,18-9.5,25.5-20.8a93.2,93.2,0,0,1-3.8-26.4l-56.4,8.4a85.3,85.3,0,0,1,8.9,23.2C461.7,382.4,470.6,388.7,480,388.7Z" transform="translate(-9 -137.4)"/><path class="cls-41" d="M524.4,303.7c0,38.6-19.9,81.2-44.4,81.2s-44.4-43.4-44.4-69.9c0-15.1,19.9-66.1,44.4-66.1S524.4,265.1,524.4,303.7Z" transform="translate(-9 -137.4)"/><path class="cls-42" d="M478.8,346a.9.9,0,0,0-1.4-.7c-4.5,2.8-10.6,6.3-14.4,7.2-1.5.4-1.6,1.4-.4,1.8s10.3-.3,12.7-1.5A6.2,6.2,0,0,0,478.8,346Z" transform="translate(-9 -137.4)"/><path class="cls-43" d="M480.7,346a1.1,1.1,0,0,1,1.5-.7c4.5,2.8,10.6,6.3,14.3,7.2,1.6.4,1.7,1.4.5,1.8s-10.3-.3-12.7-1.5A6.4,6.4,0,0,1,480.7,346Z" transform="translate(-9 -137.4)"/><circle class="cls-2" cx="526.7" cy="22.7" r="22.7"/><path class="cls-44" d="M507.5,290.7c-9.6,0-17,4.2-20.7,11.1a20.4,20.4,0,0,0-16.6-.8c-3.8-6.4-10.9-10.3-20.2-10.3-13.8,0-23.2,8.8-23.2,21.8s10.4,25.4,23.2,25.4,23.3-11.4,23.3-25.4a22.4,22.4,0,0,0-2.2-9.8c5.4-1.8,10-1.6,14.9.8a23.7,23.7,0,0,0-1.7,9c0,14,10.4,25.4,23.2,25.4s23.3-11.4,23.3-25.4S521.4,290.7,507.5,290.7ZM450,336c-11.8,0-21.4-10.5-21.4-23.5s10.7-19.9,21.4-19.9,21.5,6.1,21.5,19.9S461.9,336,450,336Zm57.5,0c-11.8,0-21.5-10.5-21.5-23.5s10.8-19.9,21.5-19.9,21.5,6.1,21.5,19.9S519.4,336,507.5,336Z" transform="translate(-9 -137.4)"/><path class="cls-45" d="M511.3,287.6c-10.5,0-18.6,4.3-22.6,11.2a23.3,23.3,0,0,0-18-.9c-4.2-6.4-12-10.3-22.1-10.3-15.1,0-25.3,8.8-25.3,21.9a25.4,25.4,0,0,0,50.7,0,21.3,21.3,0,0,0-2.4-9.9,21.8,21.8,0,0,1,16.3.9,22,22,0,0,0-1.9,9,25.4,25.4,0,0,0,50.7,0C536.7,296.4,526.5,287.6,511.3,287.6Zm-62.7,45.3a23.4,23.4,0,0,1-23.4-23.4c0-13.8,11.8-20,23.4-20s23.5,6.2,23.5,20A23.5,23.5,0,0,1,448.6,332.9Zm62.7,0a23.4,23.4,0,0,1-23.4-23.4c0-13.8,11.8-20,23.4-20s23.5,6.2,23.5,20A23.5,23.5,0,0,1,511.3,332.9Z" transform="translate(-9 -137.4)"/><path class="cls-46" d="M541.4,262.1c2.8,2,8.4,3.5,15.5,5.1a23.6,23.6,0,0,1-2.3-1.3c-13.2-9.5-9.4-35.9-28.3-52.9C545.2,230,528.2,252.6,541.4,262.1Z" transform="translate(-9 -137.4)"/><g class="cls-34"><path class="cls-47" d="M497.9,413.3c-7.4,4.1-20.8,3.8-20.8,3.8-24.5-1.9-24.5-13.4-24.5-13.3-1.9,3.8,5.7,15.2,24.5,17,0,0,11.4,0,18.9-3.7s21.3-13,21.4-19C517.4,397.5,514.9,403.8,497.9,413.3Z" transform="translate(-9 -137.4)"/></g><path class="cls-48" d="M536.1,704.3h34.7a24.5,24.5,0,0,0,23.9-19.4c1.1-5.1,2.3-10.9,3.6-17.1A436.3,436.3,0,0,0,536.1,704.3Z" transform="translate(-9 -137.4)"/><path class="cls-49" d="M806,698.6c-5.7-37.8-34-75.6-138-54.8-93.1,18.7-180.1,104-224.4,165,13.9,14.9,28.1,33.9,32.5,63,21.8-1.1,59.4-7.1,129.6-22C756.8,817.7,811.6,736.4,806,698.6Z" transform="translate(-9 -137.4)"/><path class="cls-39" d="M476.1,871.8c-4.4-29.1-18.6-48.1-32.5-63l-1.6,2.3c13.6,14.4,27.2,32.9,31.9,60.8Z" transform="translate(-9 -137.4)"/><path class="cls-50" d="M441.7,807c-1.6,2.1-3.1,4.3-4.6,6.4-3.3,4.8-6.4,9.4-9.1,13.7,0,0-8.7,2.6-11.9,4.5s-2.2,6.3-.2,12.4l1.3-.2c-1.4-5.1-1.5-9.1.8-10.3s11.9-4.5,11.9-4.5c2.7-4.3,5.8-8.9,9.1-13.7l4.6-6.5a510.5,510.5,0,0,1,40.3-48.5c-.4-.8-.9-1.6-1.4-2.4A496.3,496.3,0,0,0,441.7,807Z" transform="translate(-9 -137.4)"/><path class="cls-51" d="M441.7,807c-1.6,2.1-3.1,4.3-4.6,6.4-3.3,4.8-6.4,9.4-9.1,13.7,0,0-8.7,2.6-11.9,4.5s-2.2,6.3-.2,12.4l1.3-.2c-1.4-5.1-1.5-9.1.8-10.3s11.9-4.5,11.9-4.5c2.7-4.3,5.8-8.9,9.1-13.7l4.6-6.5a510.5,510.5,0,0,1,40.3-48.5c-.4-.8-.9-1.6-1.4-2.4A496.3,496.3,0,0,0,441.7,807Z" transform="translate(-9 -137.4)"/><path class="cls-41" d="M443.6,808.8l-4.6,6.5c-3.3,4.8-6.4,9.4-9.1,13.7h-.3c6.9,4,21.5,13.1,23,18.8,2.1,8.6,2.4,16.5,1.1,22.8a63.6,63.6,0,0,0,10.6,1.3c3.3.1,7.2.1,11.8-.2C471.7,842.7,457.5,823.7,443.6,808.8Z" transform="translate(-9 -137.4)"/><path class="cls-41" d="M447.5,881.8Z" transform="translate(-9 -137.4)"/><path class="cls-41" d="M453.6,871a.4.4,0,0,1,.1-.3h-.1Z" transform="translate(-9 -137.4)"/><path class="cls-52" d="M452.6,847.9c-1.5-5.7-16.1-14.8-23-18.8l-2.4.8a57,57,0,0,0-9.2,3.6c-9.2,5.2,19.2,54.4,28.3,49.1l1.2-.8h0c3.3-2.4,5.3-6.2,6.1-10.8v-.4h.1C455,864.4,454.7,856.5,452.6,847.9Z" transform="translate(-9 -137.4)"/><path class="cls-53" d="M204.1,219.3l.6-2.1.4-1.7c.3-1.1.3-2.2.5-3.4a20.4,20.4,0,0,0-.8-6.5l-.2-.8-.4-.8-.6-1.5a24.9,24.9,0,0,0-1.9-3,36.2,36.2,0,0,0-5.1-5.3,53,53,0,0,0-13.9-7.5,75.8,75.8,0,0,0-22.3-4.1v1.9c-.4,4.9-.7,9.8-.7,14.7,0,9.6,1.1,19.3,5.1,27.3a28.6,28.6,0,0,0,8.1,9.8,34.9,34.9,0,0,0,11.4,5.7,71.3,71.3,0,0,0,13.2,2.2h.6c.5-2.6,1-5.2,1.6-7.7C200.9,230.6,202.5,224.9,204.1,219.3Z" transform="translate(-9 -137.4)"/><path class="cls-2" d="M168.1,434.5a2,2,0,0,1-2.8-2,40.7,40.7,0,0,1,3.6-10.5,45.2,45.2,0,0,1,8.2-11.4,38.1,38.1,0,0,1,11.8-8.3,27.8,27.8,0,0,1,11.1-2.6,1.9,1.9,0,0,1,1.5,3.1c-2.3,3-4.5,5.5-6.6,7.9s-5.5,6.2-8.4,9.2-6.1,5.8-9.5,8.6A65.8,65.8,0,0,1,168.1,434.5Z" transform="translate(-9 -137.4)"/><path class="cls-2" d="M212.7,480.1a1.9,1.9,0,0,1-2.7-1.9,49.6,49.6,0,0,1,4.6-15.6,57.3,57.3,0,0,1,10.7-15.2A49.7,49.7,0,0,1,241,436.5c5.2-2.1,10.8-3.5,16.6-2.9a1.9,1.9,0,0,1,1.4,3c-3.3,4.6-6.4,8.3-9.4,12s-7,8.2-10.8,12.1a154.2,154.2,0,0,1-12.6,11.2A65.5,65.5,0,0,1,212.7,480.1Z" transform="translate(-9 -137.4)"/></svg>