<svg width="30" height="30" viewBox="0 0 30 30" fill="none" xmlns="http://www.w3.org/2000/svg">
<path d="M9.98076 23.3691C9.98076 23.4892 9.84239 23.5852 9.66792 23.5852C9.46939 23.6032 9.33102 23.5072 9.33102 23.3691C9.33102 23.2491 9.46939 23.1531 9.64386 23.1531C9.82434 23.1351 9.98076 23.2311 9.98076 23.3691ZM8.10974 23.0991C8.06763 23.2191 8.18795 23.3571 8.36844 23.3931C8.52486 23.4531 8.70534 23.3931 8.74144 23.2731C8.77753 23.1531 8.66323 23.015 8.48274 22.961C8.32632 22.919 8.15186 22.979 8.10974 23.0991ZM10.7689 22.997C10.5944 23.0391 10.4741 23.1531 10.4921 23.2911C10.5102 23.4111 10.6666 23.4892 10.8471 23.4471C11.0215 23.4051 11.1419 23.2911 11.1238 23.1711C11.1058 23.0571 10.9433 22.979 10.7689 22.997ZM14.7275 0C6.38311 0 0 6.31939 0 14.6432C0 21.2987 4.19926 26.9939 10.1973 28.9984C10.9674 29.1364 11.2381 28.6623 11.2381 28.2722C11.2381 27.9001 11.2201 25.8477 11.2201 24.5874C11.2201 24.5874 7.00879 25.4876 6.12442 22.799C6.12442 22.799 5.43858 21.0526 4.45194 20.6025C4.45194 20.6025 3.07424 19.6603 4.54819 19.6783C4.54819 19.6783 6.04621 19.7983 6.87042 21.2267C8.18795 23.5432 10.3959 22.877 11.2562 22.4809C11.3945 21.5207 11.7856 20.8546 12.2188 20.4585C8.85574 20.0864 5.46265 19.6003 5.46265 13.827C5.46265 12.1767 5.91987 11.3485 6.88245 10.2923C6.72603 9.90217 6.21466 8.29382 7.03887 6.21736C8.29624 5.82728 11.19 7.83772 11.19 7.83772C12.3932 7.50165 13.6867 7.32761 14.9681 7.32761C16.2496 7.32761 17.543 7.50165 18.7463 7.83772C18.7463 7.83772 21.64 5.82128 22.8974 6.21736C23.7216 8.29982 23.2102 9.90217 23.0538 10.2923C24.0164 11.3545 24.606 12.1827 24.606 13.827C24.606 19.6183 21.0625 20.0804 17.6995 20.4585C18.2529 20.9326 18.7222 21.8328 18.7222 23.2431C18.7222 25.2655 18.7041 27.7681 18.7041 28.2602C18.7041 28.6503 18.9809 29.1244 19.7449 28.9864C25.7611 26.9939 29.84 21.2987 29.84 14.6432C29.84 6.31939 23.0719 0 14.7275 0ZM5.84768 20.6985C5.76947 20.7586 5.78752 20.8966 5.88979 21.0106C5.98605 21.1066 6.12442 21.1486 6.20263 21.0706C6.28084 21.0106 6.26279 20.8726 6.16052 20.7586C6.06426 20.6625 5.92589 20.6205 5.84768 20.6985ZM5.19794 20.2124C5.15582 20.2904 5.21598 20.3865 5.33631 20.4465C5.43256 20.5065 5.55289 20.4885 5.595 20.4045C5.63711 20.3265 5.57695 20.2304 5.45663 20.1704C5.33631 20.1344 5.24005 20.1524 5.19794 20.2124ZM7.14716 22.3489C7.0509 22.4269 7.087 22.607 7.22537 22.721C7.36374 22.859 7.53821 22.877 7.61642 22.781C7.69463 22.703 7.65853 22.5229 7.53821 22.4089C7.40586 22.2709 7.22537 22.2529 7.14716 22.3489ZM6.46132 21.4667C6.36507 21.5267 6.36507 21.6828 6.46132 21.8208C6.55758 21.9588 6.72002 22.0188 6.79823 21.9588C6.89448 21.8808 6.89448 21.7248 6.79823 21.5867C6.714 21.4487 6.55758 21.3887 6.46132 21.4667Z" fill="#333333"/>
</svg>
