<svg width="30" height="31" viewBox="0 0 30 31" fill="none" xmlns="http://www.w3.org/2000/svg">
<path d="M29.9925 30.8806V30.8794H30V19.8769C30 14.4944 28.8412 10.3481 22.5487 10.3481C19.5237 10.3481 17.4937 12.0081 16.665 13.5819H16.5775V10.8506H10.6112V30.8794H16.8237V20.9619C16.8237 18.3506 17.3187 15.8256 20.5525 15.8256C23.7387 15.8256 23.7862 18.8056 23.7862 21.1294V30.8806H29.9925Z" fill="#333333"/>
<path d="M0.494995 10.8521H6.715V30.8808H0.494995V10.8521Z" fill="#333333"/>
<path d="M3.6025 0.880859C1.61375 0.880859 0 2.49461 0 4.48336C0 6.47211 1.61375 8.11961 3.6025 8.11961C5.59125 8.11961 7.205 6.47211 7.205 4.48336C7.20375 2.49461 5.59 0.880859 3.6025 0.880859V0.880859Z" fill="#333333"/>
</svg>
