<svg width="31" height="31" viewBox="0 0 31 31" fill="none" xmlns="http://www.w3.org/2000/svg">
<path d="M28.8287 8.35141C27.4873 6.05339 25.6678 4.23389 23.3697 2.89258C21.0712 1.55134 18.5621 0.880859 15.8404 0.880859C13.119 0.880859 10.6091 1.55134 8.311 2.89258C6.01277 4.23369 4.19328 6.05318 2.8519 8.35141C1.51045 10.6498 0.839966 13.1597 0.839966 15.8809C0.839966 18.6022 1.51065 21.1117 2.85169 23.4102C4.193 25.7082 6.0125 27.5277 8.31072 28.8691C10.6091 30.2103 13.1188 30.8809 15.8401 30.8809C18.5614 30.8809 21.0714 30.2103 23.3696 28.8691C25.6677 27.5282 27.4871 25.7082 28.8284 23.4102C30.1694 21.1119 30.8398 18.6021 30.8398 15.8809C30.8399 13.1594 30.1694 10.6494 28.8287 8.35141ZM15.8402 3.0684C19.0692 3.0684 21.8883 4.13607 24.2971 6.27134L24.0529 6.61291C23.9553 6.74987 23.7111 7.01325 23.3206 7.40407C22.9301 7.79455 22.5036 8.16588 22.0414 8.51737C21.5789 8.869 20.951 9.26933 20.1564 9.71858C19.3621 10.1678 18.5158 10.5619 17.6173 10.9004C16.12 8.13975 14.5186 5.65278 12.8128 3.43938C13.8416 3.19201 14.8506 3.0684 15.8402 3.0684ZM5.80132 7.93117C7.05123 6.35597 8.57444 5.14484 10.3715 4.29861C11.986 6.44702 13.5744 8.90813 15.1371 11.6815C11.1787 12.7231 7.23354 13.244 3.30121 13.2438C3.7181 11.2778 4.5514 9.50671 5.80132 7.93117ZM3.88694 20.5004C3.31394 19.0356 3.0275 17.4956 3.0275 15.8809C3.0275 15.6985 3.03421 15.5617 3.04707 15.4707C7.76084 15.4707 12.1425 14.8654 16.1919 13.6542C16.6087 14.4614 16.9537 15.1841 17.2272 15.8223C17.1744 15.8483 17.0904 15.8774 16.9732 15.9101C16.8556 15.9426 16.7712 15.9652 16.7186 15.9784L15.9961 16.2323C15.5011 16.4147 14.8532 16.7272 14.0527 17.1697C13.252 17.6129 12.4024 18.1399 11.504 18.752C10.6055 19.3642 9.67768 20.1747 8.72077 21.1842C7.76372 22.1932 6.9597 23.2769 6.30864 24.4357C5.26697 23.2769 4.4598 21.9647 3.88694 20.5004ZM15.8402 28.6935C12.7932 28.6935 10.0719 27.7168 7.67595 25.7639L7.96895 25.9788C8.42462 24.9759 9.09511 24.0123 9.98074 23.088C10.8662 22.1637 11.719 21.4179 12.5393 20.8514C13.3596 20.2854 14.2515 19.7516 15.2152 19.2496C16.1787 18.7487 16.8359 18.4293 17.1878 18.2931C17.5394 18.1564 17.8194 18.0487 18.0277 17.9704L18.0666 17.9508H18.1059C19.3815 21.2971 20.2934 24.5396 20.8401 27.6776C19.2255 28.355 17.5591 28.6933 15.8402 28.6935ZM26.622 22.8047C25.6583 24.2958 24.4536 25.5298 23.0088 26.506C22.4745 23.5113 21.6416 20.4575 20.5085 17.3458C23.0996 16.9417 25.7623 17.1308 28.4967 17.9118C28.2102 19.6827 27.5851 21.314 26.622 22.8047ZM28.4574 15.7051C28.3272 15.6793 28.1643 15.6497 27.969 15.6173C27.7738 15.585 27.5359 15.5457 27.2559 15.5002C26.9763 15.4546 26.6633 15.4124 26.3186 15.3733C25.9734 15.3342 25.6057 15.2985 25.2147 15.2659C24.8242 15.2332 24.4075 15.2074 23.965 15.1877C23.5218 15.1683 23.0728 15.1585 22.617 15.1585C22.1616 15.1585 21.6827 15.1717 21.1817 15.1975C20.6805 15.2232 20.1956 15.2693 19.7269 15.3343C19.6876 15.2691 19.6389 15.1616 19.5803 15.0118C19.5218 14.8622 19.4792 14.7481 19.4539 14.6699C19.2062 14.1231 18.9196 13.5045 18.5938 12.8146C19.4923 12.4498 20.3486 12.03 21.1629 11.5546C21.9765 11.0792 22.627 10.6563 23.1156 10.2853C23.604 9.91382 24.0662 9.51992 24.5023 9.10337C24.9387 8.68675 25.2215 8.39717 25.3521 8.23436C25.4825 8.07127 25.6061 7.91188 25.7232 7.75583L25.7428 7.73613C27.6438 10.0539 28.6143 12.723 28.6528 15.7441L28.4574 15.7051Z" fill="#333333"/>
</svg>
