<svg width="168" height="73" viewBox="0 0 168 73" fill="none" xmlns="http://www.w3.org/2000/svg">
<rect x="82.48" y="0.916992" width="13.3511" height="71.7991" fill="#555555"/>
<path fill-rule="evenodd" clip-rule="evenodd" d="M109.182 0.916992V13.6747H131.73V72.7161H145.082V13.6747H167.63V0.916992H145.082H131.73H109.182Z" fill="#555555"/>
<path fill-rule="evenodd" clip-rule="evenodd" d="M58.3662 44.8263C61.2206 43.5417 63.6697 41.8814 65.5373 40.0801C67.4468 43.1172 68.5355 46.9852 68.5355 51.8113C68.5355 65.9041 57.1129 72.8763 44.2069 72.8763H26.5538H20.9167H13.9444H0V47.9543H13.6478V59.8219H44.0585C48.5646 59.8219 54.8877 58.4868 54.8877 51.6629C54.8877 49.3634 54.3164 47.7091 53.3949 46.5198C55.017 46.1418 56.6937 45.5789 58.3662 44.8263Z" fill="#555555"/>
<path fill-rule="evenodd" clip-rule="evenodd" d="M0 0.916992H42.13C55.6295 0.916992 66.7553 7.88922 66.7553 21.982C66.7553 36.0748 54.0606 43.047 42.4267 43.047H26.5538L26.4054 54.618L13.9444 43.047H0V0.916992ZM13.6478 13.6747H42.2784C46.7845 13.6747 53.1076 15.7515 53.1076 21.8337C53.1076 28.2125 46.7845 29.9927 42.2784 29.9927H13.6478V13.6747Z" fill="#555555"/>
</svg>
