<svg width="166" height="32" viewBox="0 0 166 32" fill="none" xmlns="http://www.w3.org/2000/svg">
<mask id="path-1-outside-1" maskUnits="userSpaceOnUse" x="0" y="-0.0830078" width="166" height="32" fill="black">
<rect fill="white" y="-0.0830078" width="166" height="32"/>
<path d="M1 7.38608H3.7794V23.9876H1V7.38608ZM1 3.7015V0.917133H3.7794V3.7015H1Z"/>
<path d="M12.7201 23.9876H9.94071V7.38608H12.7201V10.3798C13.2956 9.38887 13.8361 8.67708 14.3414 8.24442C14.8608 7.7978 15.4223 7.46982 16.0259 7.26047C16.6436 7.03716 17.2963 6.92551 17.9841 6.92551C18.672 6.92551 19.3247 7.03018 19.9423 7.23953C20.574 7.44888 21.1145 7.76989 21.5637 8.20255C22.0269 8.63521 22.4831 9.36096 22.9323 10.3798C23.5078 9.41678 24.0693 8.71197 24.6168 8.26535C25.1783 7.81874 25.7468 7.48378 26.3223 7.26047C26.9119 7.03716 27.5366 6.92551 28.1963 6.92551C29.1368 6.92551 29.9861 7.14881 30.7441 7.59543C31.5162 8.02809 32.1057 8.65614 32.5128 9.47959C32.9339 10.2891 33.1445 11.6638 33.1445 13.6038V23.9876H30.3651V14.7552C30.3651 12.8013 30.2458 11.5661 30.0072 11.0497C29.7685 10.5333 29.4386 10.1425 29.0175 9.87736C28.6104 9.59822 28.1121 9.45865 27.5225 9.45865C26.6943 9.45865 25.9293 9.71685 25.2274 10.2333C24.5396 10.7357 23.9851 11.4196 23.564 12.2849C23.1429 13.1502 22.9323 14.3575 22.9323 15.9067V23.9876H20.1529V14.7552C20.1529 12.8013 20.0476 11.5661 19.8371 11.0497C19.6265 10.5333 19.2826 10.1425 18.8053 9.87736C18.3421 9.59822 17.8438 9.45865 17.3103 9.45865C16.5523 9.45865 15.8013 9.72383 15.0573 10.2542C14.3274 10.7845 13.7519 11.4894 13.3307 12.3686C12.9237 13.234 12.7201 14.4133 12.7201 15.9067V23.9876Z"/>
<path d="M70.6932 20.4704C70.1176 21.6427 69.3736 22.522 68.4612 23.1082C67.5628 23.6944 66.489 23.9875 65.2396 23.9875C63.2604 23.9875 61.625 23.2129 60.3336 21.6637C59.0421 20.1145 58.3964 18.0768 58.3964 15.5506C58.3964 13.8758 58.6842 12.3545 59.2597 10.9868C59.8352 9.61902 60.6424 8.60017 61.6812 7.93025C62.734 7.26033 63.9692 6.92537 65.387 6.92537C66.4258 6.92537 67.3593 7.13472 68.1875 7.55342C69.0157 7.95816 69.8509 8.78859 70.6932 10.0447V7.38594H73.9523V20.9519C73.9523 24.3573 73.5873 26.6044 72.8574 27.693C72.1415 28.7956 70.7563 29.6051 69.6614 30.1215C68.5665 30.6518 67.275 30.917 65.7871 30.917C64.4114 30.917 63.1761 30.7146 62.0812 30.3099C60.9863 29.9051 60.1511 29.3469 59.5755 28.6351C59.014 27.9233 58.7333 27.1836 58.7333 26.4159V26.1647H61.5127V26.4159C61.5127 27.1417 61.9128 27.7209 62.7129 28.1536C63.513 28.6002 64.5237 28.8235 65.745 28.8235C66.7416 28.8235 67.5979 28.649 68.3138 28.3001C69.0297 27.9651 69.6053 27.4139 70.0404 26.6462C70.4756 25.8786 70.6932 24.4899 70.6932 22.4801V20.4704ZM70.6932 15.1947C70.6932 13.4222 70.2299 11.9847 69.3035 10.8821C68.391 9.77952 67.2961 9.22823 66.0187 9.22823C64.6711 9.22823 63.5481 9.7865 62.6497 10.903C61.7513 12.0056 61.3021 13.5618 61.3021 15.5716C61.3021 16.8416 61.4776 17.9512 61.8285 18.9002C62.1935 19.8493 62.755 20.5751 63.513 21.0775C64.2851 21.566 65.0993 21.8102 65.9555 21.8102C67.3593 21.8102 68.4963 21.1961 69.3666 19.9679C70.251 18.7258 70.6932 17.1347 70.6932 15.1947Z"/>
<path d="M78.3695 7.38594H81.1489V23.9875H78.3695V7.38594ZM78.3695 3.70136V0.916992H81.1489V3.70136H78.3695Z"/>
<path d="M89.645 23.9875H86.5679V7.38594H89.645V10.254C90.2346 9.34686 90.8031 8.67694 91.3506 8.24428C91.9121 7.81162 92.4946 7.48364 93.0982 7.26033C93.7018 7.03702 94.3756 6.92537 95.1196 6.92537C96.1584 6.92537 97.0919 7.1417 97.9201 7.57435C98.7623 7.99306 99.408 8.62111 99.8572 9.45851C100.32 10.282 100.552 11.6009 100.552 13.4152V23.9875H97.7727V14.6085C97.7727 13.1152 97.6744 12.0614 97.4779 11.4473C97.2814 10.8333 96.8883 10.3517 96.2987 10.0028C95.7232 9.63995 95.0985 9.45851 94.4248 9.45851C93.6106 9.45851 92.8315 9.69578 92.0875 10.1703C91.3576 10.6448 90.768 11.3148 90.3188 12.1801C89.8696 13.0314 89.645 14.2457 89.645 15.8228V23.9875Z"/>
<path d="M116.578 23.9875C116.284 23.0942 116.136 22.3266 116.136 21.6846C114.915 22.8849 113.876 23.6455 113.02 23.9665C112.164 24.2875 111.335 24.448 110.535 24.448C109.216 24.448 107.644 24.1059 106.689 23.2964C105.734 22.4869 105.257 21.3773 105.257 19.9677C105.257 18.3627 105.924 17.1275 107.693 16.1996C109.04 15.3203 111.356 14.5597 114.641 13.9177L116.136 13.6455V11.7614C116.136 10.7425 115.792 10.0307 115.104 9.62599C114.417 9.20729 113.588 8.99794 112.62 8.99794C111.469 8.99794 110.563 9.25614 109.904 9.77254C109.258 10.275 108.935 10.8612 108.935 11.5311V11.7614H105.924V11.552C105.924 10.8123 106.233 10.0517 106.85 9.2701C107.482 8.48852 108.31 7.90234 109.335 7.51155C110.374 7.1068 111.504 6.90443 112.725 6.90443C113.946 6.90443 115.135 7.04016 116.132 7.41699C117.128 7.79382 118.236 8.35593 118.685 8.99794C119.148 9.63995 119.38 10.8402 119.38 12.5988V15.8228V19.0468C119.38 19.7586 119.394 20.5053 119.422 21.2868C119.464 22.0545 119.647 22.9547 119.97 23.9875H116.578ZM116.136 15.6134L115.294 15.8018C112.472 16.4857 110.669 17.1417 109.883 17.7697C109.096 18.3838 108.703 19.1166 108.703 19.9679C108.703 20.4006 108.816 20.8053 109.04 21.1822C109.279 21.559 109.63 21.8521 110.093 22.0614C110.556 22.2708 111.013 22.3755 111.462 22.3755C112.234 22.3755 112.992 22.1522 113.736 21.7055C114.494 21.245 115.083 20.6379 115.504 19.8842C115.926 19.1305 116.136 18.2513 116.136 17.2464V15.6134Z"/>
<path d="M127.646 23.9875H124.568V7.38594H127.646V10.3169C128.109 9.46549 128.608 8.80953 129.141 8.34895C129.688 7.88838 130.271 7.53946 130.889 7.3022C131.506 7.05098 132.131 6.92537 132.763 6.92537C133.338 6.92537 133.836 7.00911 134.258 7.17659V10.0447C133.598 9.72369 132.903 9.56319 132.173 9.56319C131.12 9.56319 130.103 10.0238 129.12 10.9449C128.137 11.8521 127.646 13.4641 127.646 15.7809V23.9875Z"/>
<path d="M148.033 21.6427L147.863 23.9355C146.515 24.2565 146.113 24.417 145.397 24.417C144.359 24.417 143.361 24.3542 142.519 23.9355C141.691 23.5168 141.173 22.9268 140.738 22.1452C140.302 21.3497 139.986 19.961 139.986 18.2303V9.6888H137.313V7.38594H139.986V2.45014H142.999V7.38594H147.863V9.6888H142.999V17.4348C142.999 18.9002 143.111 19.9191 143.335 20.4913C143.56 21.0635 143.918 21.4822 144.409 21.7474C144.901 22.0126 145.49 22.1452 146.178 22.1452C146.725 22.1452 147.316 21.917 148.033 21.6427Z"/>
<path d="M162.183 19.7167H164.963V19.8633C164.963 20.603 164.668 21.3566 164.078 22.1243C163.489 22.8779 162.71 23.4571 161.741 23.8619C160.772 24.2527 159.664 24.448 158.414 24.448C155.873 24.448 153.908 23.6316 152.519 21.9986C151.143 20.3657 150.455 18.3001 150.455 15.8018C150.455 13.2478 151.185 11.1333 152.645 9.45851C154.105 7.76975 155.986 6.92537 158.288 6.92537C159.551 6.92537 160.695 7.19752 161.72 7.74184C162.759 8.28615 163.573 9.13751 164.163 10.2959C164.766 11.4404 165.068 13.0454 165.068 15.111V16.0321H153.213C153.213 17.8046 153.691 19.2701 154.645 20.4285C155.614 21.573 156.947 22.1452 158.646 22.1452C159.867 22.1452 160.758 21.9149 161.32 21.4543C161.895 20.9798 162.183 20.4494 162.183 19.8633V19.7167ZM153.382 13.9596H162.394V13.6246C162.394 12.857 162.204 12.1103 161.825 11.3845C161.46 10.6448 160.948 10.1005 160.288 9.75161C159.628 9.40269 158.863 9.22823 157.993 9.22823C156.954 9.22823 155.993 9.64693 155.108 10.4843C154.238 11.3078 153.663 12.4662 153.382 13.9596Z"/>
<path d="M49.8211 23.9564C49.5264 23.0632 49.379 22.2956 49.379 21.6536C48.1577 22.8538 47.1189 23.6145 46.2627 23.9355C45.4064 24.2565 44.5782 24.417 43.7781 24.417C42.4585 24.417 40.8864 24.0748 39.9318 23.2653C38.9773 22.4559 38.5 21.3463 38.5 19.9367C38.5 18.3316 39.1668 17.0965 40.9355 16.1686C42.2831 15.2893 44.5992 14.5286 47.884 13.8866L49.379 13.6145V11.7303C49.379 10.7115 49.0351 9.99969 48.3472 9.59494C47.6594 9.17624 46.8312 8.96689 45.8626 8.96689C44.7115 8.96689 43.8061 9.22509 43.1464 9.74149C42.5006 10.2439 42.1778 10.8301 42.1778 11.5V11.7303H39.1668V11.521C39.1668 10.7813 39.4756 10.0206 40.0932 9.23905C40.7249 8.45747 41.5531 7.87129 42.5779 7.4805C43.6166 7.07575 44.7466 6.87338 45.9679 6.87338C47.1891 6.87338 48.3777 7.00911 49.3743 7.38594C50.371 7.76277 51.4789 8.32488 51.928 8.96689C52.3913 9.6089 52.6229 10.8092 52.6229 12.5677V15.7917V19.0157C52.6229 19.7275 52.6369 20.4742 52.665 21.2558C52.7071 22.0234 52.8896 22.9236 53.2125 23.9564H49.8211ZM49.379 15.5824L48.5367 15.7708C45.7152 16.4547 43.9114 17.1106 43.1253 17.7387C42.3392 18.3528 41.9462 19.0855 41.9462 19.9369C41.9462 20.3695 42.0585 20.7743 42.2831 21.1511C42.5217 21.528 42.8726 21.821 43.3359 22.0304C43.7991 22.2397 44.2553 22.3444 44.7045 22.3444C45.4766 22.3444 46.2346 22.1211 46.9786 21.6745C47.7366 21.2139 48.3262 20.6068 48.7473 19.8531C49.1684 19.0995 49.379 18.2202 49.379 17.2153V15.5824Z"/>
</mask>
<path d="M1 7.38608H3.7794V23.9876H1V7.38608ZM1 3.7015V0.917133H3.7794V3.7015H1Z" fill="#555555"/>
<path d="M12.7201 23.9876H9.94071V7.38608H12.7201V10.3798C13.2956 9.38887 13.8361 8.67708 14.3414 8.24442C14.8608 7.7978 15.4223 7.46982 16.0259 7.26047C16.6436 7.03716 17.2963 6.92551 17.9841 6.92551C18.672 6.92551 19.3247 7.03018 19.9423 7.23953C20.574 7.44888 21.1145 7.76989 21.5637 8.20255C22.0269 8.63521 22.4831 9.36096 22.9323 10.3798C23.5078 9.41678 24.0693 8.71197 24.6168 8.26535C25.1783 7.81874 25.7468 7.48378 26.3223 7.26047C26.9119 7.03716 27.5366 6.92551 28.1963 6.92551C29.1368 6.92551 29.9861 7.14881 30.7441 7.59543C31.5162 8.02809 32.1057 8.65614 32.5128 9.47959C32.9339 10.2891 33.1445 11.6638 33.1445 13.6038V23.9876H30.3651V14.7552C30.3651 12.8013 30.2458 11.5661 30.0072 11.0497C29.7685 10.5333 29.4386 10.1425 29.0175 9.87736C28.6104 9.59822 28.1121 9.45865 27.5225 9.45865C26.6943 9.45865 25.9293 9.71685 25.2274 10.2333C24.5396 10.7357 23.9851 11.4196 23.564 12.2849C23.1429 13.1502 22.9323 14.3575 22.9323 15.9067V23.9876H20.1529V14.7552C20.1529 12.8013 20.0476 11.5661 19.8371 11.0497C19.6265 10.5333 19.2826 10.1425 18.8053 9.87736C18.3421 9.59822 17.8438 9.45865 17.3103 9.45865C16.5523 9.45865 15.8013 9.72383 15.0573 10.2542C14.3274 10.7845 13.7519 11.4894 13.3307 12.3686C12.9237 13.234 12.7201 14.4133 12.7201 15.9067V23.9876Z" fill="#555555"/>
<path d="M70.6932 20.4704C70.1176 21.6427 69.3736 22.522 68.4612 23.1082C67.5628 23.6944 66.489 23.9875 65.2396 23.9875C63.2604 23.9875 61.625 23.2129 60.3336 21.6637C59.0421 20.1145 58.3964 18.0768 58.3964 15.5506C58.3964 13.8758 58.6842 12.3545 59.2597 10.9868C59.8352 9.61902 60.6424 8.60017 61.6812 7.93025C62.734 7.26033 63.9692 6.92537 65.387 6.92537C66.4258 6.92537 67.3593 7.13472 68.1875 7.55342C69.0157 7.95816 69.8509 8.78859 70.6932 10.0447V7.38594H73.9523V20.9519C73.9523 24.3573 73.5873 26.6044 72.8574 27.693C72.1415 28.7956 70.7563 29.6051 69.6614 30.1215C68.5665 30.6518 67.275 30.917 65.7871 30.917C64.4114 30.917 63.1761 30.7146 62.0812 30.3099C60.9863 29.9051 60.1511 29.3469 59.5755 28.6351C59.014 27.9233 58.7333 27.1836 58.7333 26.4159V26.1647H61.5127V26.4159C61.5127 27.1417 61.9128 27.7209 62.7129 28.1536C63.513 28.6002 64.5237 28.8235 65.745 28.8235C66.7416 28.8235 67.5979 28.649 68.3138 28.3001C69.0297 27.9651 69.6053 27.4139 70.0404 26.6462C70.4756 25.8786 70.6932 24.4899 70.6932 22.4801V20.4704ZM70.6932 15.1947C70.6932 13.4222 70.2299 11.9847 69.3035 10.8821C68.391 9.77952 67.2961 9.22823 66.0187 9.22823C64.6711 9.22823 63.5481 9.7865 62.6497 10.903C61.7513 12.0056 61.3021 13.5618 61.3021 15.5716C61.3021 16.8416 61.4776 17.9512 61.8285 18.9002C62.1935 19.8493 62.755 20.5751 63.513 21.0775C64.2851 21.566 65.0993 21.8102 65.9555 21.8102C67.3593 21.8102 68.4963 21.1961 69.3666 19.9679C70.251 18.7258 70.6932 17.1347 70.6932 15.1947Z" fill="#555555"/>
<path d="M78.3695 7.38594H81.1489V23.9875H78.3695V7.38594ZM78.3695 3.70136V0.916992H81.1489V3.70136H78.3695Z" fill="#555555"/>
<path d="M89.645 23.9875H86.5679V7.38594H89.645V10.254C90.2346 9.34686 90.8031 8.67694 91.3506 8.24428C91.9121 7.81162 92.4946 7.48364 93.0982 7.26033C93.7018 7.03702 94.3756 6.92537 95.1196 6.92537C96.1584 6.92537 97.0919 7.1417 97.9201 7.57435C98.7623 7.99306 99.408 8.62111 99.8572 9.45851C100.32 10.282 100.552 11.6009 100.552 13.4152V23.9875H97.7727V14.6085C97.7727 13.1152 97.6744 12.0614 97.4779 11.4473C97.2814 10.8333 96.8883 10.3517 96.2987 10.0028C95.7232 9.63995 95.0985 9.45851 94.4248 9.45851C93.6106 9.45851 92.8315 9.69578 92.0875 10.1703C91.3576 10.6448 90.768 11.3148 90.3188 12.1801C89.8696 13.0314 89.645 14.2457 89.645 15.8228V23.9875Z" fill="#555555"/>
<path d="M116.578 23.9875C116.284 23.0942 116.136 22.3266 116.136 21.6846C114.915 22.8849 113.876 23.6455 113.02 23.9665C112.164 24.2875 111.335 24.448 110.535 24.448C109.216 24.448 107.644 24.1059 106.689 23.2964C105.734 22.4869 105.257 21.3773 105.257 19.9677C105.257 18.3627 105.924 17.1275 107.693 16.1996C109.04 15.3203 111.356 14.5597 114.641 13.9177L116.136 13.6455V11.7614C116.136 10.7425 115.792 10.0307 115.104 9.62599C114.417 9.20729 113.588 8.99794 112.62 8.99794C111.469 8.99794 110.563 9.25614 109.904 9.77254C109.258 10.275 108.935 10.8612 108.935 11.5311V11.7614H105.924V11.552C105.924 10.8123 106.233 10.0517 106.85 9.2701C107.482 8.48852 108.31 7.90234 109.335 7.51155C110.374 7.1068 111.504 6.90443 112.725 6.90443C113.946 6.90443 115.135 7.04016 116.132 7.41699C117.128 7.79382 118.236 8.35593 118.685 8.99794C119.148 9.63995 119.38 10.8402 119.38 12.5988V15.8228V19.0468C119.38 19.7586 119.394 20.5053 119.422 21.2868C119.464 22.0545 119.647 22.9547 119.97 23.9875H116.578ZM116.136 15.6134L115.294 15.8018C112.472 16.4857 110.669 17.1417 109.883 17.7697C109.096 18.3838 108.703 19.1166 108.703 19.9679C108.703 20.4006 108.816 20.8053 109.04 21.1822C109.279 21.559 109.63 21.8521 110.093 22.0614C110.556 22.2708 111.013 22.3755 111.462 22.3755C112.234 22.3755 112.992 22.1522 113.736 21.7055C114.494 21.245 115.083 20.6379 115.504 19.8842C115.926 19.1305 116.136 18.2513 116.136 17.2464V15.6134Z" fill="#555555"/>
<path d="M127.646 23.9875H124.568V7.38594H127.646V10.3169C128.109 9.46549 128.608 8.80953 129.141 8.34895C129.688 7.88838 130.271 7.53946 130.889 7.3022C131.506 7.05098 132.131 6.92537 132.763 6.92537C133.338 6.92537 133.836 7.00911 134.258 7.17659V10.0447C133.598 9.72369 132.903 9.56319 132.173 9.56319C131.12 9.56319 130.103 10.0238 129.12 10.9449C128.137 11.8521 127.646 13.4641 127.646 15.7809V23.9875Z" fill="#555555"/>
<path d="M148.033 21.6427L147.863 23.9355C146.515 24.2565 146.113 24.417 145.397 24.417C144.359 24.417 143.361 24.3542 142.519 23.9355C141.691 23.5168 141.173 22.9268 140.738 22.1452C140.302 21.3497 139.986 19.961 139.986 18.2303V9.6888H137.313V7.38594H139.986V2.45014H142.999V7.38594H147.863V9.6888H142.999V17.4348C142.999 18.9002 143.111 19.9191 143.335 20.4913C143.56 21.0635 143.918 21.4822 144.409 21.7474C144.901 22.0126 145.49 22.1452 146.178 22.1452C146.725 22.1452 147.316 21.917 148.033 21.6427Z" fill="#555555"/>
<path d="M162.183 19.7167H164.963V19.8633C164.963 20.603 164.668 21.3566 164.078 22.1243C163.489 22.8779 162.71 23.4571 161.741 23.8619C160.772 24.2527 159.664 24.448 158.414 24.448C155.873 24.448 153.908 23.6316 152.519 21.9986C151.143 20.3657 150.455 18.3001 150.455 15.8018C150.455 13.2478 151.185 11.1333 152.645 9.45851C154.105 7.76975 155.986 6.92537 158.288 6.92537C159.551 6.92537 160.695 7.19752 161.72 7.74184C162.759 8.28615 163.573 9.13751 164.163 10.2959C164.766 11.4404 165.068 13.0454 165.068 15.111V16.0321H153.213C153.213 17.8046 153.691 19.2701 154.645 20.4285C155.614 21.573 156.947 22.1452 158.646 22.1452C159.867 22.1452 160.758 21.9149 161.32 21.4543C161.895 20.9798 162.183 20.4494 162.183 19.8633V19.7167ZM153.382 13.9596H162.394V13.6246C162.394 12.857 162.204 12.1103 161.825 11.3845C161.46 10.6448 160.948 10.1005 160.288 9.75161C159.628 9.40269 158.863 9.22823 157.993 9.22823C156.954 9.22823 155.993 9.64693 155.108 10.4843C154.238 11.3078 153.663 12.4662 153.382 13.9596Z" fill="#555555"/>
<path d="M49.8211 23.9564C49.5264 23.0632 49.379 22.2956 49.379 21.6536C48.1577 22.8538 47.1189 23.6145 46.2627 23.9355C45.4064 24.2565 44.5782 24.417 43.7781 24.417C42.4585 24.417 40.8864 24.0748 39.9318 23.2653C38.9773 22.4559 38.5 21.3463 38.5 19.9367C38.5 18.3316 39.1668 17.0965 40.9355 16.1686C42.2831 15.2893 44.5992 14.5286 47.884 13.8866L49.379 13.6145V11.7303C49.379 10.7115 49.0351 9.99969 48.3472 9.59494C47.6594 9.17624 46.8312 8.96689 45.8626 8.96689C44.7115 8.96689 43.8061 9.22509 43.1464 9.74149C42.5006 10.2439 42.1778 10.8301 42.1778 11.5V11.7303H39.1668V11.521C39.1668 10.7813 39.4756 10.0206 40.0932 9.23905C40.7249 8.45747 41.5531 7.87129 42.5779 7.4805C43.6166 7.07575 44.7466 6.87338 45.9679 6.87338C47.1891 6.87338 48.3777 7.00911 49.3743 7.38594C50.371 7.76277 51.4789 8.32488 51.928 8.96689C52.3913 9.6089 52.6229 10.8092 52.6229 12.5677V15.7917V19.0157C52.6229 19.7275 52.6369 20.4742 52.665 21.2558C52.7071 22.0234 52.8896 22.9236 53.2125 23.9564H49.8211ZM49.379 15.5824L48.5367 15.7708C45.7152 16.4547 43.9114 17.1106 43.1253 17.7387C42.3392 18.3528 41.9462 19.0855 41.9462 19.9369C41.9462 20.3695 42.0585 20.7743 42.2831 21.1511C42.5217 21.528 42.8726 21.821 43.3359 22.0304C43.7991 22.2397 44.2553 22.3444 44.7045 22.3444C45.4766 22.3444 46.2346 22.1211 46.9786 21.6745C47.7366 21.2139 48.3262 20.6068 48.7473 19.8531C49.1684 19.0995 49.379 18.2202 49.379 17.2153V15.5824Z" fill="#555555"/>
<path d="M1 7.38608H3.7794V23.9876H1V7.38608ZM1 3.7015V0.917133H3.7794V3.7015H1Z" stroke="#555555" mask="url(#path-1-outside-1)"/>
<path d="M12.7201 23.9876H9.94071V7.38608H12.7201V10.3798C13.2956 9.38887 13.8361 8.67708 14.3414 8.24442C14.8608 7.7978 15.4223 7.46982 16.0259 7.26047C16.6436 7.03716 17.2963 6.92551 17.9841 6.92551C18.672 6.92551 19.3247 7.03018 19.9423 7.23953C20.574 7.44888 21.1145 7.76989 21.5637 8.20255C22.0269 8.63521 22.4831 9.36096 22.9323 10.3798C23.5078 9.41678 24.0693 8.71197 24.6168 8.26535C25.1783 7.81874 25.7468 7.48378 26.3223 7.26047C26.9119 7.03716 27.5366 6.92551 28.1963 6.92551C29.1368 6.92551 29.9861 7.14881 30.7441 7.59543C31.5162 8.02809 32.1057 8.65614 32.5128 9.47959C32.9339 10.2891 33.1445 11.6638 33.1445 13.6038V23.9876H30.3651V14.7552C30.3651 12.8013 30.2458 11.5661 30.0072 11.0497C29.7685 10.5333 29.4386 10.1425 29.0175 9.87736C28.6104 9.59822 28.1121 9.45865 27.5225 9.45865C26.6943 9.45865 25.9293 9.71685 25.2274 10.2333C24.5396 10.7357 23.9851 11.4196 23.564 12.2849C23.1429 13.1502 22.9323 14.3575 22.9323 15.9067V23.9876H20.1529V14.7552C20.1529 12.8013 20.0476 11.5661 19.8371 11.0497C19.6265 10.5333 19.2826 10.1425 18.8053 9.87736C18.3421 9.59822 17.8438 9.45865 17.3103 9.45865C16.5523 9.45865 15.8013 9.72383 15.0573 10.2542C14.3274 10.7845 13.7519 11.4894 13.3307 12.3686C12.9237 13.234 12.7201 14.4133 12.7201 15.9067V23.9876Z" stroke="#555555" mask="url(#path-1-outside-1)"/>
<path d="M70.6932 20.4704C70.1176 21.6427 69.3736 22.522 68.4612 23.1082C67.5628 23.6944 66.489 23.9875 65.2396 23.9875C63.2604 23.9875 61.625 23.2129 60.3336 21.6637C59.0421 20.1145 58.3964 18.0768 58.3964 15.5506C58.3964 13.8758 58.6842 12.3545 59.2597 10.9868C59.8352 9.61902 60.6424 8.60017 61.6812 7.93025C62.734 7.26033 63.9692 6.92537 65.387 6.92537C66.4258 6.92537 67.3593 7.13472 68.1875 7.55342C69.0157 7.95816 69.8509 8.78859 70.6932 10.0447V7.38594H73.9523V20.9519C73.9523 24.3573 73.5873 26.6044 72.8574 27.693C72.1415 28.7956 70.7563 29.6051 69.6614 30.1215C68.5665 30.6518 67.275 30.917 65.7871 30.917C64.4114 30.917 63.1761 30.7146 62.0812 30.3099C60.9863 29.9051 60.1511 29.3469 59.5755 28.6351C59.014 27.9233 58.7333 27.1836 58.7333 26.4159V26.1647H61.5127V26.4159C61.5127 27.1417 61.9128 27.7209 62.7129 28.1536C63.513 28.6002 64.5237 28.8235 65.745 28.8235C66.7416 28.8235 67.5979 28.649 68.3138 28.3001C69.0297 27.9651 69.6053 27.4139 70.0404 26.6462C70.4756 25.8786 70.6932 24.4899 70.6932 22.4801V20.4704ZM70.6932 15.1947C70.6932 13.4222 70.2299 11.9847 69.3035 10.8821C68.391 9.77952 67.2961 9.22823 66.0187 9.22823C64.6711 9.22823 63.5481 9.7865 62.6497 10.903C61.7513 12.0056 61.3021 13.5618 61.3021 15.5716C61.3021 16.8416 61.4776 17.9512 61.8285 18.9002C62.1935 19.8493 62.755 20.5751 63.513 21.0775C64.2851 21.566 65.0993 21.8102 65.9555 21.8102C67.3593 21.8102 68.4963 21.1961 69.3666 19.9679C70.251 18.7258 70.6932 17.1347 70.6932 15.1947Z" stroke="#555555" mask="url(#path-1-outside-1)"/>
<path d="M78.3695 7.38594H81.1489V23.9875H78.3695V7.38594ZM78.3695 3.70136V0.916992H81.1489V3.70136H78.3695Z" stroke="#555555" mask="url(#path-1-outside-1)"/>
<path d="M89.645 23.9875H86.5679V7.38594H89.645V10.254C90.2346 9.34686 90.8031 8.67694 91.3506 8.24428C91.9121 7.81162 92.4946 7.48364 93.0982 7.26033C93.7018 7.03702 94.3756 6.92537 95.1196 6.92537C96.1584 6.92537 97.0919 7.1417 97.9201 7.57435C98.7623 7.99306 99.408 8.62111 99.8572 9.45851C100.32 10.282 100.552 11.6009 100.552 13.4152V23.9875H97.7727V14.6085C97.7727 13.1152 97.6744 12.0614 97.4779 11.4473C97.2814 10.8333 96.8883 10.3517 96.2987 10.0028C95.7232 9.63995 95.0985 9.45851 94.4248 9.45851C93.6106 9.45851 92.8315 9.69578 92.0875 10.1703C91.3576 10.6448 90.768 11.3148 90.3188 12.1801C89.8696 13.0314 89.645 14.2457 89.645 15.8228V23.9875Z" stroke="#555555" mask="url(#path-1-outside-1)"/>
<path d="M116.578 23.9875C116.284 23.0942 116.136 22.3266 116.136 21.6846C114.915 22.8849 113.876 23.6455 113.02 23.9665C112.164 24.2875 111.335 24.448 110.535 24.448C109.216 24.448 107.644 24.1059 106.689 23.2964C105.734 22.4869 105.257 21.3773 105.257 19.9677C105.257 18.3627 105.924 17.1275 107.693 16.1996C109.04 15.3203 111.356 14.5597 114.641 13.9177L116.136 13.6455V11.7614C116.136 10.7425 115.792 10.0307 115.104 9.62599C114.417 9.20729 113.588 8.99794 112.62 8.99794C111.469 8.99794 110.563 9.25614 109.904 9.77254C109.258 10.275 108.935 10.8612 108.935 11.5311V11.7614H105.924V11.552C105.924 10.8123 106.233 10.0517 106.85 9.2701C107.482 8.48852 108.31 7.90234 109.335 7.51155C110.374 7.1068 111.504 6.90443 112.725 6.90443C113.946 6.90443 115.135 7.04016 116.132 7.41699C117.128 7.79382 118.236 8.35593 118.685 8.99794C119.148 9.63995 119.38 10.8402 119.38 12.5988V15.8228V19.0468C119.38 19.7586 119.394 20.5053 119.422 21.2868C119.464 22.0545 119.647 22.9547 119.97 23.9875H116.578ZM116.136 15.6134L115.294 15.8018C112.472 16.4857 110.669 17.1417 109.883 17.7697C109.096 18.3838 108.703 19.1166 108.703 19.9679C108.703 20.4006 108.816 20.8053 109.04 21.1822C109.279 21.559 109.63 21.8521 110.093 22.0614C110.556 22.2708 111.013 22.3755 111.462 22.3755C112.234 22.3755 112.992 22.1522 113.736 21.7055C114.494 21.245 115.083 20.6379 115.504 19.8842C115.926 19.1305 116.136 18.2513 116.136 17.2464V15.6134Z" stroke="#555555" mask="url(#path-1-outside-1)"/>
<path d="M127.646 23.9875H124.568V7.38594H127.646V10.3169C128.109 9.46549 128.608 8.80953 129.141 8.34895C129.688 7.88838 130.271 7.53946 130.889 7.3022C131.506 7.05098 132.131 6.92537 132.763 6.92537C133.338 6.92537 133.836 7.00911 134.258 7.17659V10.0447C133.598 9.72369 132.903 9.56319 132.173 9.56319C131.12 9.56319 130.103 10.0238 129.12 10.9449C128.137 11.8521 127.646 13.4641 127.646 15.7809V23.9875Z" stroke="#555555" mask="url(#path-1-outside-1)"/>
<path d="M148.033 21.6427L147.863 23.9355C146.515 24.2565 146.113 24.417 145.397 24.417C144.359 24.417 143.361 24.3542 142.519 23.9355C141.691 23.5168 141.173 22.9268 140.738 22.1452C140.302 21.3497 139.986 19.961 139.986 18.2303V9.6888H137.313V7.38594H139.986V2.45014H142.999V7.38594H147.863V9.6888H142.999V17.4348C142.999 18.9002 143.111 19.9191 143.335 20.4913C143.56 21.0635 143.918 21.4822 144.409 21.7474C144.901 22.0126 145.49 22.1452 146.178 22.1452C146.725 22.1452 147.316 21.917 148.033 21.6427Z" stroke="#555555" mask="url(#path-1-outside-1)"/>
<path d="M162.183 19.7167H164.963V19.8633C164.963 20.603 164.668 21.3566 164.078 22.1243C163.489 22.8779 162.71 23.4571 161.741 23.8619C160.772 24.2527 159.664 24.448 158.414 24.448C155.873 24.448 153.908 23.6316 152.519 21.9986C151.143 20.3657 150.455 18.3001 150.455 15.8018C150.455 13.2478 151.185 11.1333 152.645 9.45851C154.105 7.76975 155.986 6.92537 158.288 6.92537C159.551 6.92537 160.695 7.19752 161.72 7.74184C162.759 8.28615 163.573 9.13751 164.163 10.2959C164.766 11.4404 165.068 13.0454 165.068 15.111V16.0321H153.213C153.213 17.8046 153.691 19.2701 154.645 20.4285C155.614 21.573 156.947 22.1452 158.646 22.1452C159.867 22.1452 160.758 21.9149 161.32 21.4543C161.895 20.9798 162.183 20.4494 162.183 19.8633V19.7167ZM153.382 13.9596H162.394V13.6246C162.394 12.857 162.204 12.1103 161.825 11.3845C161.46 10.6448 160.948 10.1005 160.288 9.75161C159.628 9.40269 158.863 9.22823 157.993 9.22823C156.954 9.22823 155.993 9.64693 155.108 10.4843C154.238 11.3078 153.663 12.4662 153.382 13.9596Z" stroke="#555555" mask="url(#path-1-outside-1)"/>
<path d="M49.8211 23.9564C49.5264 23.0632 49.379 22.2956 49.379 21.6536C48.1577 22.8538 47.1189 23.6145 46.2627 23.9355C45.4064 24.2565 44.5782 24.417 43.7781 24.417C42.4585 24.417 40.8864 24.0748 39.9318 23.2653C38.9773 22.4559 38.5 21.3463 38.5 19.9367C38.5 18.3316 39.1668 17.0965 40.9355 16.1686C42.2831 15.2893 44.5992 14.5286 47.884 13.8866L49.379 13.6145V11.7303C49.379 10.7115 49.0351 9.99969 48.3472 9.59494C47.6594 9.17624 46.8312 8.96689 45.8626 8.96689C44.7115 8.96689 43.8061 9.22509 43.1464 9.74149C42.5006 10.2439 42.1778 10.8301 42.1778 11.5V11.7303H39.1668V11.521C39.1668 10.7813 39.4756 10.0206 40.0932 9.23905C40.7249 8.45747 41.5531 7.87129 42.5779 7.4805C43.6166 7.07575 44.7466 6.87338 45.9679 6.87338C47.1891 6.87338 48.3777 7.00911 49.3743 7.38594C50.371 7.76277 51.4789 8.32488 51.928 8.96689C52.3913 9.6089 52.6229 10.8092 52.6229 12.5677V15.7917V19.0157C52.6229 19.7275 52.6369 20.4742 52.665 21.2558C52.7071 22.0234 52.8896 22.9236 53.2125 23.9564H49.8211ZM49.379 15.5824L48.5367 15.7708C45.7152 16.4547 43.9114 17.1106 43.1253 17.7387C42.3392 18.3528 41.9462 19.0855 41.9462 19.9369C41.9462 20.3695 42.0585 20.7743 42.2831 21.1511C42.5217 21.528 42.8726 21.821 43.3359 22.0304C43.7991 22.2397 44.2553 22.3444 44.7045 22.3444C45.4766 22.3444 46.2346 22.1211 46.9786 21.6745C47.7366 21.2139 48.3262 20.6068 48.7473 19.8531C49.1684 19.0995 49.379 18.2202 49.379 17.2153V15.5824Z" stroke="#555555" mask="url(#path-1-outside-1)"/>
</svg>
